<svg width="288" height="131" viewBox="0 0 288 131" fill="none" xmlns="http://www.w3.org/2000/svg">
<path d="M73.5683 35.8C73.7349 36.0396 73.787 36.274 73.7349 36.5084C73.6933 36.748 73.5527 36.9459 73.3183 37.1125C68.3599 40.6542 63.8287 44.0084 59.7349 47.1751C60.1516 48.4928 60.1985 49.9355 59.8808 51.5084C59.3808 54.2271 58.4641 56.7636 57.1308 59.1126C55.7974 61.4563 54.2402 63.5969 52.4641 65.5292C50.6985 67.4719 48.8443 69.1386 46.9016 70.5292C44.9693 71.9303 43.1204 73.0188 41.3599 73.8001C39.5943 74.5761 38.0735 75.0136 36.7974 75.1126C36.5995 75.1542 36.4277 75.1751 36.2766 75.1751C35.2766 75.1751 34.5683 74.9719 34.1516 74.5709C33.7349 74.1646 33.4641 73.7896 33.3391 73.4459C32.5995 71.4303 34.3235 68.1126 38.5058 63.4876C42.6829 58.8626 49.011 53.2376 57.4849 46.6126C56.4277 44.7271 54.3079 42.9823 51.1308 41.3834C47.9485 39.774 43.7349 37.9146 38.4849 35.8C37.8704 35.55 37.2454 35.3 36.6099 35.05C35.9693 34.7896 35.3079 34.5084 34.6308 34.2167C32.3391 33.2584 30.7402 31.9667 29.8391 30.3417C28.9485 28.7063 28.8391 26.8313 29.5058 24.7167C30.0162 23.0917 30.912 21.4355 32.1933 19.7375C33.4693 18.0292 35.0162 16.3417 36.8391 14.675C38.6724 12.998 40.6568 11.399 42.7974 9.88338C44.9485 8.35734 47.1412 6.96671 49.3808 5.71671C51.6152 4.46671 53.8027 3.41463 55.9433 2.55005C58.0943 1.69067 60.0735 1.08651 61.8808 0.737547C63.6829 0.378173 65.2141 0.341714 66.4641 0.633381C66.9745 0.758381 67.5474 0.997965 68.1724 1.34171C68.7974 1.69067 69.287 2.25838 69.6516 3.05005C70.0266 3.8313 70.1308 4.90421 69.9641 6.27921C69.9068 6.54484 69.7818 6.75317 69.5891 6.90421C69.3912 7.04484 69.1724 7.09171 68.9224 7.05005C68.6568 7.02401 68.4433 6.90421 68.2766 6.69588C68.1204 6.48755 68.0579 6.25838 68.0891 6.00838C68.2818 4.66463 68.136 3.7688 67.6516 3.32088C67.1777 2.86255 66.6568 2.57088 66.0891 2.44588C64.8652 2.15421 63.2558 2.25317 61.2558 2.73755C59.2558 3.21151 57.0162 4.0188 54.5474 5.15421C52.0891 6.29484 49.5683 7.69588 46.9849 9.36255C44.2193 11.0865 41.7402 12.8834 39.5474 14.7584C37.3652 16.6334 35.5579 18.4667 34.1308 20.2584C32.7141 22.05 31.761 23.7167 31.2766 25.2584C30.2193 28.55 31.5787 30.9823 35.3599 32.55C36.0266 32.8 36.6724 33.0605 37.2974 33.3209C37.9224 33.5709 38.5527 33.8209 39.1933 34.0709C42.4277 35.3938 45.3652 36.6334 48.0058 37.8C50.6412 38.9667 52.9016 40.1646 54.7766 41.3834C56.6516 42.5917 58.0527 43.9459 58.9849 45.4459C63.011 42.3209 67.4433 39.0448 72.2766 35.6125C72.4954 35.4615 72.7245 35.4146 72.9641 35.4667C73.1985 35.5084 73.4016 35.623 73.5683 35.8ZM58.1099 51.1126C58.3027 50.1542 58.3183 49.2584 58.1516 48.4251C51.3443 53.7688 45.9433 58.4771 41.9433 62.5501C39.5943 64.9511 37.7974 67.0813 36.5474 68.9459C35.3079 70.8209 34.8183 72.1126 35.0683 72.8209C35.162 73.0709 35.386 73.2167 35.7349 73.2584C36.0943 73.3105 36.4016 73.3261 36.6516 73.3001C37.7037 73.2271 39.0318 72.8261 40.6308 72.0917C42.2402 71.3521 43.9433 70.3417 45.7349 69.0501C47.5266 67.7584 49.2662 66.2167 50.9641 64.4251C52.6568 62.6334 54.1412 60.6126 55.4224 58.3626C56.6985 56.123 57.5943 53.7063 58.1099 51.1126Z" fill="black"/>
<path d="M91.8008 36.1543C92.0352 36.2376 92.1863 36.4043 92.2592 36.6543C92.3425 36.8938 92.3321 37.123 92.2383 37.3418C91.6238 38.5918 90.9571 39.8418 90.2383 41.0918C89.53 42.3418 88.78 43.4876 87.9883 44.5293C87.2071 45.5605 86.405 46.3834 85.5717 47.0084C84.7383 47.6334 83.905 47.9459 83.0717 47.9459C82.9154 47.9459 82.7436 47.9303 82.5508 47.9043C80.3946 47.4876 79.0613 44.6074 78.5508 39.2584C78.0092 39.998 77.3738 40.8209 76.655 41.7376C75.9467 42.6543 75.1863 43.5605 74.3842 44.4459C74.2592 44.5709 74.0508 44.7741 73.7592 45.0501C73.4675 45.3157 73.1238 45.5293 72.7383 45.6959C72.3633 45.8626 71.9779 45.8522 71.5925 45.6543C70.8321 45.3626 70.4623 44.5293 70.4883 43.1543C70.4883 42.3522 70.6446 41.3574 70.9467 40.1751C71.254 38.998 71.6863 37.8105 72.2383 36.6126C72.8061 35.4043 73.4675 34.3366 74.2175 33.4043C74.9675 32.4772 75.8061 31.8522 76.7383 31.5293C77.3061 31.3105 78.0092 31.2741 78.8425 31.4251C79.6758 31.5657 80.5404 32.1647 81.4467 33.2168C81.5977 33.4147 81.6654 33.6438 81.655 33.9043C81.6394 34.1543 81.5352 34.3574 81.3425 34.5084C81.1446 34.6751 80.9154 34.7532 80.655 34.7376C80.405 34.7116 80.2019 34.6074 80.0508 34.4251C79.2852 33.5241 78.6186 33.1022 78.0508 33.1543C77.4936 33.1959 77.0196 33.3626 76.6342 33.6543C75.9363 34.1699 75.3008 34.9043 74.7175 35.8626C74.1446 36.8209 73.6654 37.8313 73.28 38.8834C72.8894 39.9407 72.6133 40.9251 72.4467 41.8418C72.2904 42.748 72.2488 43.4043 72.3217 43.8209C72.4154 43.7688 72.5196 43.6907 72.6342 43.5918C72.7436 43.498 72.8633 43.3626 72.9883 43.1959C73.9467 42.1438 74.8269 41.0918 75.6342 40.0501C76.4363 39.0084 77.1238 38.0918 77.6967 37.3001C77.8633 37.0813 78.0144 36.8626 78.155 36.6543C78.2904 36.4459 78.4258 36.2584 78.5508 36.0918C78.8113 35.7741 79.155 35.6751 79.5717 35.8001C79.9883 35.8991 80.2071 36.1751 80.2383 36.6334C80.3321 38.7063 80.4988 40.373 80.7383 41.6334C80.9883 42.8991 81.2488 43.8418 81.53 44.4668C81.8217 45.0918 82.0925 45.5188 82.3425 45.7376C82.6029 45.9616 82.8008 46.0709 82.9258 46.0709C83.5352 46.2116 84.5092 45.5918 85.8425 44.2168C87.1863 42.8418 88.7592 40.2949 90.5508 36.5709C90.6863 36.3209 90.8738 36.1543 91.1133 36.0709C91.3477 35.9876 91.5769 36.0188 91.8008 36.1543Z" fill="black"/>
<path d="M112.303 35.7999C112.495 35.9405 112.62 36.1332 112.678 36.3832C112.745 36.6332 112.719 36.878 112.594 37.1124C111.053 39.5707 109.688 41.5707 108.511 43.1124C107.329 44.6436 106.313 45.8103 105.469 46.6124C104.62 47.4041 103.907 47.9457 103.323 48.2374C102.751 48.5291 102.287 48.6749 101.928 48.6749C101.579 48.6749 101.308 48.6593 101.115 48.6332C100.376 48.4353 99.8339 47.9926 99.4902 47.2999C99.1412 46.6228 98.9068 45.9145 98.7818 45.1749C98.6672 44.4405 98.5995 43.878 98.5735 43.4874C98.5162 42.3624 98.3912 41.6124 98.1985 41.2374C98.0006 40.852 97.8547 40.6541 97.761 40.6541C97.7297 40.6541 97.7193 40.6541 97.7193 40.6541C97.3027 40.6541 96.6047 41.2374 95.636 42.4041C94.6777 43.5707 93.5527 45.4041 92.261 47.9041C90.9693 50.4041 89.6152 53.6541 88.1985 57.6541C88.0735 58.0707 87.7922 58.2791 87.3443 58.2791C87.2766 58.2791 87.2141 58.2791 87.1568 58.2791C86.6464 58.1384 86.4016 57.8207 86.4277 57.3207C86.4693 56.7634 86.6152 55.7843 86.8652 54.3832C87.1152 52.977 87.4641 51.2895 87.9068 49.3207C88.3391 47.3468 88.8183 45.2114 89.3443 42.9041C89.8704 40.602 90.412 38.2686 90.9693 35.9041C91.5214 33.5291 92.0579 31.2686 92.5735 29.1124C93.0839 26.9457 93.5527 25.003 93.9693 23.2791C94.386 21.5603 94.7193 20.1749 94.9693 19.1332C95.2297 18.0916 95.3652 17.5603 95.3652 17.5291C96.0995 14.5864 96.912 11.9041 97.8027 9.4874C98.7037 7.07073 99.5943 5.12802 100.469 3.65407C101.355 2.18532 102.136 1.38323 102.803 1.25823C103.344 1.16448 103.761 1.32073 104.053 1.7374C104.495 2.37802 104.454 3.71136 103.928 5.7374C103.396 7.76865 102.438 10.3364 101.053 13.4457C99.662 16.5447 97.8912 20.0186 95.7402 23.8624C95.1672 26.253 94.537 28.878 93.8443 31.7374C93.162 34.5864 92.4902 37.4457 91.8235 40.3207C91.1672 43.1957 90.5735 45.852 90.0318 48.2791C90.8912 46.4614 91.7818 44.8155 92.6985 43.3416C93.6152 41.8728 94.5214 40.7322 95.4277 39.9249C96.3443 39.1072 97.2037 38.7478 98.011 38.8416C98.7037 38.9249 99.2193 39.2739 99.5527 39.8832C99.8964 40.4978 100.126 41.1489 100.24 41.8416C100.35 42.5239 100.407 43.0239 100.407 43.3416C100.501 44.5239 100.662 45.3937 100.886 45.9457C101.105 46.4874 101.329 46.7739 101.553 46.7999C101.62 46.8259 101.834 46.7895 102.198 46.6749C102.573 46.5655 103.115 46.2114 103.823 45.6124C104.542 45.003 105.495 43.9562 106.678 42.4666C107.87 40.9666 109.313 38.8416 111.011 36.0916C111.136 35.8989 111.323 35.7739 111.573 35.7166C111.834 35.6489 112.079 35.6749 112.303 35.7999ZM102.469 3.94573C101.928 4.7374 101.198 6.15407 100.282 8.19573C99.3652 10.227 98.4381 12.9822 97.511 16.4666C99.1464 13.2322 100.344 10.5811 101.094 8.50823C101.844 6.4249 102.303 4.90407 102.469 3.94573Z" fill="black"/>
<path d="M124.303 35.8625C124.522 35.9875 124.657 36.1854 124.699 36.4459C124.751 36.6959 124.72 36.9354 124.595 37.1542C123.98 38.1125 123.21 39.1907 122.282 40.3834C121.35 41.5657 120.345 42.6907 119.262 43.7584C118.178 44.8313 117.095 45.7167 116.012 46.425C114.939 47.1177 113.96 47.4667 113.074 47.4667C112.683 47.4667 112.35 47.4042 112.074 47.2792C110.975 46.7948 110.371 45.6334 110.262 43.8C110.152 41.9667 110.522 39.3729 111.387 36.0084C111.454 35.7479 111.6 35.55 111.824 35.425C112.043 35.3 112.267 35.2688 112.491 35.3209C112.751 35.3938 112.949 35.5396 113.074 35.7584C113.199 35.9823 113.23 36.2063 113.178 36.425C112.663 38.4823 112.335 40.1125 112.199 41.3209C112.074 42.5188 112.053 43.4198 112.137 44.0292C112.22 44.6282 112.335 45.0292 112.491 45.2375C112.657 45.4459 112.751 45.55 112.782 45.55C113.199 45.7479 113.803 45.6125 114.595 45.1542C115.397 44.6854 116.293 43.9979 117.282 43.0917C118.282 42.175 119.282 41.1229 120.282 39.925C121.293 38.7167 122.204 37.4615 123.012 36.1542C123.163 35.9198 123.355 35.7792 123.595 35.7375C123.845 35.6854 124.079 35.7271 124.303 35.8625ZM112.97 32.0084C112.329 31.9823 112.001 31.8 111.991 31.4667C111.975 31.1334 112.121 30.7948 112.428 30.4459C112.73 30.0865 113.043 29.8417 113.366 29.7167C113.876 29.55 114.251 29.5865 114.491 29.8209C114.725 30.0448 114.835 30.3313 114.824 30.675C114.808 31.024 114.647 31.3417 114.345 31.6334C114.038 31.925 113.579 32.05 112.97 32.0084Z" fill="black"/>
<path d="M136.489 1.8208C136.905 2.43538 136.911 3.66976 136.51 5.52913C136.119 7.37809 135.301 9.66976 134.051 12.4041C132.801 15.1437 131.135 18.175 129.051 21.5083C129.02 21.5396 128.994 21.5656 128.968 21.5916C128.135 24.9979 127.307 28.4614 126.489 31.9875C125.666 35.5031 124.89 38.9562 124.155 42.3416C123.416 45.7323 122.749 48.9146 122.155 51.9041C121.546 54.9041 121.025 57.5708 120.593 59.9041C120.15 62.2375 119.838 64.1125 119.655 65.5291C119.687 65.5291 119.713 65.5291 119.739 65.5291C120.004 65.6125 120.192 65.7635 120.301 65.9875C120.416 66.2218 120.421 66.4666 120.322 66.7166C120.103 67.326 119.874 67.8729 119.635 68.3625C119.385 68.8625 119.051 69.1125 118.635 69.1125C118.541 69.1125 118.426 69.0969 118.301 69.0708C118.01 68.9719 117.801 68.7687 117.676 68.4666C117.551 68.1594 117.541 67.55 117.635 66.6333C117.734 65.7271 117.942 64.3312 118.26 62.4458C118.833 58.9875 119.692 54.4718 120.843 48.9041C121.676 45.0031 122.551 41.0291 123.468 36.9875C124.385 32.9354 125.286 29.0291 126.176 25.2791C127.077 21.5187 127.937 18.1021 128.76 15.0291C128.926 14.4198 129.166 13.5708 129.489 12.4875C129.807 11.3937 130.176 10.2271 130.593 8.98747C131.01 7.73747 131.473 6.53955 131.989 5.3833C132.499 4.23226 133.03 3.27913 133.572 2.52913C134.114 1.76872 134.655 1.34163 135.197 1.2583C135.739 1.16455 136.166 1.35205 136.489 1.8208ZM130.635 15.175C132.176 12.2896 133.26 9.8833 133.885 7.96663C134.51 6.04997 134.869 4.66455 134.968 3.79997C134.51 4.44059 133.895 5.64893 133.135 7.42497C132.369 9.19059 131.536 11.7739 130.635 15.175Z" fill="black"/>
<path d="M190.979 32.6334C191.073 32.8574 191.073 33.0917 190.979 33.3417C190.88 33.5813 190.719 33.748 190.5 33.8417C188.61 34.6074 186.802 35.3938 185.083 36.1959C183.375 36.9876 181.735 37.774 180.167 38.5501C177.776 48.8834 174.802 57.5084 171.25 64.4251C168.651 69.5084 165.865 73.4876 162.896 76.3626C159.922 79.248 157.026 80.7688 154.208 80.9251C154.042 80.9511 153.88 80.9667 153.729 80.9667C152.063 80.9667 150.646 80.4563 149.479 79.4459C148.313 78.4459 147.521 77.0501 147.104 75.2584C146.714 73.5917 146.729 71.6542 147.146 69.4459C147.563 67.248 148.458 64.8522 149.833 62.2584C151.208 59.6595 153.146 56.9563 155.646 54.1542C158.146 51.3626 161.292 48.5345 165.083 45.6751C168.875 42.8157 173.375 40.024 178.583 37.3001C180.542 28.7167 182.047 19.2115 183.104 8.77924C183.198 7.85216 183.261 7.05008 183.292 6.38341C183.042 6.92508 182.771 7.53966 182.479 8.21674C182.188 8.88341 181.901 9.55008 181.625 10.2167C180.818 12.0501 179.896 14.1282 178.854 16.4459C177.813 18.7688 176.651 21.1334 175.375 23.5501C174.094 25.9667 172.714 28.274 171.229 30.4667C169.74 32.649 168.167 34.524 166.5 36.0917C162.333 39.998 159.021 41.5501 156.563 40.7584C155.979 40.5917 155.365 40.1907 154.729 39.5501C154.089 38.9147 153.61 37.8417 153.292 36.3417C153.042 34.9667 152.99 33.373 153.146 31.5501C153.313 29.7167 153.667 27.8001 154.208 25.8001C154.75 23.8001 155.464 21.8209 156.354 19.8626C157.255 17.8938 158.313 16.0449 159.521 14.3209C160.74 12.5865 162.089 11.0917 163.563 9.84174C163.755 9.67508 163.979 9.60737 164.229 9.63341C164.49 9.64904 164.708 9.7532 164.875 9.94591C165.026 10.1282 165.094 10.3522 165.083 10.6126C165.068 10.8626 164.964 11.0709 164.771 11.2376C163.422 12.3938 162.188 13.7688 161.063 15.3626C159.948 16.9615 158.969 18.6907 158.125 20.5501C157.276 22.399 156.573 24.2584 156.021 26.1334C155.479 28.0084 155.125 29.8001 154.958 31.5084C154.802 33.2167 154.86 34.7167 155.125 36.0084C155.25 36.5813 155.448 37.1751 155.729 37.8001C156.021 38.4251 156.49 38.8365 157.146 39.0292C157.464 39.1282 157.958 39.1282 158.625 39.0292C159.292 38.9355 160.156 38.5657 161.229 37.9251C162.313 37.2897 163.636 36.2324 165.208 34.7584C166.802 33.248 168.318 31.4251 169.75 29.3001C171.193 27.1751 172.542 24.9355 173.792 22.5709C175.042 20.1959 176.188 17.8782 177.229 15.6126C178.271 13.3365 179.172 11.3001 179.938 9.50841C180.771 7.59174 181.422 6.1282 181.896 5.11258C182.38 4.10216 182.792 3.41987 183.125 3.07091C183.458 2.72716 183.833 2.61258 184.25 2.73758C184.61 2.83653 184.865 3.0657 185.021 3.42508C185.188 3.77403 185.25 4.3782 185.208 5.23758C185.177 6.10216 185.089 7.34174 184.938 8.96674C183.938 18.8574 182.526 27.9459 180.708 36.2376C182.11 35.5292 183.568 34.8365 185.083 34.1542C186.61 33.4615 188.172 32.7949 189.771 32.1542C189.99 32.0605 190.219 32.0605 190.458 32.1542C190.708 32.2532 190.88 32.4147 190.979 32.6334ZM169.625 63.5501C172.917 57.1178 175.714 49.1647 178.021 39.6959C172.281 42.7949 167.646 45.8209 164.104 48.7792C160.573 51.748 157.854 54.3886 155.938 56.6959C153.188 59.9563 151.188 63.1959 149.938 66.4042C148.688 69.623 148.354 72.4511 148.938 74.8834C149.255 76.2845 149.86 77.3626 150.75 78.1126C151.651 78.873 152.755 79.2063 154.063 79.1126C155.729 79.0136 157.448 78.3209 159.229 77.0292C161.005 75.748 162.776 73.972 164.542 71.6959C166.318 69.4303 168.011 66.7167 169.625 63.5501Z" fill="black"/>
<path d="M210.025 36.1543C210.259 36.2376 210.41 36.4043 210.483 36.6543C210.567 36.8938 210.556 37.123 210.462 37.3418C209.848 38.5918 209.181 39.8418 208.462 41.0918C207.754 42.3418 207.004 43.4876 206.212 44.5293C205.431 45.5605 204.629 46.3834 203.796 47.0084C202.962 47.6334 202.129 47.9459 201.296 47.9459C201.14 47.9459 200.968 47.9303 200.775 47.9043C198.619 47.4876 197.285 44.6074 196.775 39.2584C196.233 39.998 195.598 40.8209 194.879 41.7376C194.171 42.6543 193.41 43.5605 192.608 44.4459C192.483 44.5709 192.275 44.7741 191.983 45.0501C191.692 45.3157 191.348 45.5293 190.962 45.6959C190.587 45.8626 190.202 45.8522 189.817 45.6543C189.056 45.3626 188.686 44.5293 188.712 43.1543C188.712 42.3522 188.869 41.3574 189.171 40.1751C189.478 38.998 189.91 37.8105 190.462 36.6126C191.03 35.4043 191.692 34.3366 192.442 33.4043C193.192 32.4772 194.03 31.8522 194.962 31.5293C195.53 31.3105 196.233 31.2741 197.067 31.4251C197.9 31.5657 198.765 32.1647 199.671 33.2168C199.822 33.4147 199.89 33.6438 199.879 33.9043C199.864 34.1543 199.759 34.3574 199.567 34.5084C199.369 34.6751 199.14 34.7532 198.879 34.7376C198.629 34.7116 198.426 34.6074 198.275 34.4251C197.509 33.5241 196.843 33.1022 196.275 33.1543C195.718 33.1959 195.244 33.3626 194.858 33.6543C194.16 34.1699 193.525 34.9043 192.942 35.8626C192.369 36.8209 191.89 37.8313 191.504 38.8834C191.114 39.9407 190.837 40.9251 190.671 41.8418C190.515 42.748 190.473 43.4043 190.546 43.8209C190.64 43.7688 190.744 43.6907 190.858 43.5918C190.968 43.498 191.087 43.3626 191.212 43.1959C192.171 42.1438 193.051 41.0918 193.858 40.0501C194.66 39.0084 195.348 38.0918 195.921 37.3001C196.087 37.0813 196.239 36.8626 196.379 36.6543C196.515 36.4459 196.65 36.2584 196.775 36.0918C197.035 35.7741 197.379 35.6751 197.796 35.8001C198.212 35.8991 198.431 36.1751 198.462 36.6334C198.556 38.7063 198.723 40.373 198.962 41.6334C199.212 42.8991 199.473 43.8418 199.754 44.4668C200.046 45.0918 200.317 45.5188 200.567 45.7376C200.827 45.9616 201.025 46.0709 201.15 46.0709C201.759 46.2116 202.733 45.5918 204.067 44.2168C205.41 42.8418 206.983 40.2949 208.775 36.5709C208.91 36.3209 209.098 36.1543 209.337 36.0709C209.572 35.9876 209.801 36.0188 210.025 36.1543Z" fill="black"/>
<path d="M228.277 6.7167C228.371 6.78961 228.469 6.94066 228.568 7.17503C228.662 7.41461 228.714 7.83128 228.714 8.42503C228.714 9.02399 228.579 9.89378 228.318 11.0292C228.068 12.1542 227.636 13.6646 227.027 15.55C226.928 15.8157 226.839 16.0865 226.756 16.3625C226.673 16.6282 226.589 16.8834 226.506 17.1334C225.766 19.4407 224.871 22.024 223.818 24.8834C222.761 27.7479 221.329 30.8782 219.527 34.2792C219.121 36.3521 218.693 38.5657 218.235 40.925C217.787 43.274 217.344 45.7584 216.902 48.3834C216.318 51.9354 215.86 54.8677 215.527 57.175C215.193 59.4771 214.954 61.3052 214.818 62.6542C214.693 64.0136 214.615 65.05 214.589 65.7584C214.85 65.6594 215.11 65.6594 215.36 65.7584C215.579 65.8834 215.735 66.0604 215.818 66.3C215.902 66.55 215.891 66.7844 215.798 67.0084C215.631 67.3521 215.402 67.7427 215.11 68.175C214.829 68.6177 214.485 68.8417 214.068 68.8417C213.943 68.8417 213.808 68.8209 213.673 68.7792C213.35 68.6802 213.11 68.4459 212.943 68.0709C212.787 67.7063 212.719 67.0084 212.735 65.9667C212.761 64.9354 212.902 63.3677 213.152 61.2584C213.537 57.925 214.178 53.5344 215.068 48.0917C215.579 45.1229 216.11 42.2271 216.652 39.4042C216.178 40.1698 215.678 40.9563 215.152 41.7584C214.621 42.5657 214.068 43.3834 213.485 44.2167C212.621 45.4979 211.839 46.399 211.131 46.925C210.433 47.4511 209.824 47.7271 209.298 47.7584C208.766 47.7844 208.324 47.7063 207.964 47.5292C207.272 47.1125 206.829 46.3782 206.631 45.3209C206.438 44.2688 206.459 43.0709 206.693 41.7375C206.933 40.4042 207.329 39.1334 207.881 37.925C208.99 35.55 210.277 33.8782 211.735 32.9042C213.193 31.9354 214.433 31.5865 215.464 31.8625C215.683 31.9615 216.032 32.1854 216.506 32.5292C216.99 32.8625 217.282 33.4979 217.381 34.425C217.532 34.1646 217.678 33.9042 217.818 33.6542C218.996 28.1438 220.162 23.399 221.318 19.425C222.469 15.4407 223.548 12.3365 224.548 10.1125C225.558 7.87816 226.423 6.64899 227.131 6.42503C227.574 6.27399 227.954 6.37295 228.277 6.7167ZM212.006 43.1542C212.766 42.0292 213.49 40.925 214.173 39.8417C214.865 38.7584 215.516 37.6907 216.131 36.6334C215.641 36.4667 215.449 36.1438 215.548 35.6542C215.548 35.4354 215.537 35.0813 215.527 34.5917C215.511 34.0917 215.308 33.7792 214.923 33.6542C214.865 33.6125 214.766 33.5917 214.631 33.5917C214.032 33.5917 213.24 34.0084 212.256 34.8417C211.282 35.675 210.381 36.9771 209.548 38.7375C209.006 39.8938 208.652 40.9875 208.485 42.0292C208.329 43.0709 208.303 43.9459 208.402 44.6542C208.496 45.3521 208.673 45.7584 208.923 45.8834C209.016 45.9563 209.324 45.8417 209.839 45.55C210.35 45.2584 211.074 44.4615 212.006 43.1542ZM225.256 14.9667C225.631 13.8573 225.923 12.8938 226.131 12.0709C226.339 11.2532 226.506 10.5604 226.631 9.98753C226.032 11.2375 225.298 13.1282 224.423 15.6542C223.558 18.1854 222.621 21.425 221.61 25.3834C222.277 23.7584 222.85 22.2115 223.339 20.7375C223.839 19.2688 224.298 17.8938 224.714 16.6125C224.808 16.3209 224.902 16.0448 224.985 15.7792C225.068 15.5032 225.157 15.2323 225.256 14.9667Z" fill="black"/>
<path d="M242.905 36.1543C243.139 36.2376 243.291 36.4043 243.363 36.6543C243.447 36.8938 243.436 37.123 243.343 37.3418C242.728 38.5918 242.061 39.8418 241.343 41.0918C240.634 42.3418 239.884 43.4876 239.093 44.5293C238.311 45.5605 237.509 46.3834 236.676 47.0084C235.843 47.6334 235.009 47.9459 234.176 47.9459C234.02 47.9459 233.848 47.9303 233.655 47.9043C231.499 47.4876 230.166 44.6074 229.655 39.2584C229.113 39.998 228.478 40.8209 227.759 41.7376C227.051 42.6543 226.291 43.5605 225.488 44.4459C225.363 44.5709 225.155 44.7741 224.863 45.0501C224.572 45.3157 224.228 45.5293 223.843 45.6959C223.468 45.8626 223.082 45.8522 222.697 45.6543C221.936 45.3626 221.567 44.5293 221.593 43.1543C221.593 42.3522 221.749 41.3574 222.051 40.1751C222.358 38.998 222.791 37.8105 223.343 36.6126C223.91 35.4043 224.572 34.3366 225.322 33.4043C226.072 32.4772 226.91 31.8522 227.843 31.5293C228.41 31.3105 229.113 31.2741 229.947 31.4251C230.78 31.5657 231.645 32.1647 232.551 33.2168C232.702 33.4147 232.77 33.6438 232.759 33.9043C232.744 34.1543 232.639 34.3574 232.447 34.5084C232.249 34.6751 232.02 34.7532 231.759 34.7376C231.509 34.7116 231.306 34.6074 231.155 34.4251C230.389 33.5241 229.723 33.1022 229.155 33.1543C228.598 33.1959 228.124 33.3626 227.738 33.6543C227.041 34.1699 226.405 34.9043 225.822 35.8626C225.249 36.8209 224.77 37.8313 224.384 38.8834C223.994 39.9407 223.718 40.9251 223.551 41.8418C223.395 42.748 223.353 43.4043 223.426 43.8209C223.52 43.7688 223.624 43.6907 223.738 43.5918C223.848 43.498 223.968 43.3626 224.093 43.1959C225.051 42.1438 225.931 41.0918 226.738 40.0501C227.541 39.0084 228.228 38.0918 228.801 37.3001C228.968 37.0813 229.119 36.8626 229.259 36.6543C229.395 36.4459 229.53 36.2584 229.655 36.0918C229.916 35.7741 230.259 35.6751 230.676 35.8001C231.093 35.8991 231.311 36.1751 231.343 36.6334C231.436 38.7063 231.603 40.373 231.843 41.6334C232.093 42.8991 232.353 43.8418 232.634 44.4668C232.926 45.0918 233.197 45.5188 233.447 45.7376C233.707 45.9616 233.905 46.0709 234.03 46.0709C234.639 46.2116 235.613 45.5918 236.947 44.2168C238.291 42.8418 239.863 40.2949 241.655 36.5709C241.791 36.3209 241.978 36.1543 242.218 36.0709C242.452 35.9876 242.681 36.0188 242.905 36.1543Z" fill="black"/>
<path d="M264.761 36.3417C264.98 36.4979 265.1 36.7063 265.115 36.9667C265.126 37.2167 265.058 37.4406 264.907 37.6334C263.683 39.0396 262.287 40.05 260.719 40.675C259.147 41.3 257.662 41.425 256.261 41.05C254.621 40.6334 253.355 39.6229 252.469 38.0084C251.662 40.8 250.449 43.5396 248.824 46.2167C247.725 48.05 246.615 49.5604 245.49 50.7584C244.376 51.9511 243.376 52.6959 242.49 52.9875C242.167 53.0813 241.865 53.1334 241.574 53.1334C241.209 53.1334 240.912 53.0552 240.678 52.9042C240.443 52.7636 240.261 52.6438 240.136 52.55C240.001 52.3938 239.824 52.1542 239.615 51.8209C239.407 51.4875 239.272 50.9354 239.199 50.175C239.115 49.425 239.157 48.3469 239.324 46.9459C239.48 45.5448 239.839 43.7167 240.407 41.4667C240.959 39.2063 241.792 36.4042 242.907 33.0709C242.975 32.8521 243.126 32.6854 243.365 32.5709C243.6 32.4615 243.834 32.4354 244.074 32.4875C244.324 32.5865 244.501 32.7531 244.615 32.9875C244.725 33.2115 244.73 33.4459 244.636 33.6959C243.647 36.7115 242.891 39.2531 242.365 41.3209C241.834 43.3781 241.475 45.05 241.282 46.3417C241.084 47.6334 240.996 48.6177 241.011 49.3C241.022 49.9927 241.084 50.4771 241.199 50.7584C241.324 51.0344 241.397 51.1854 241.428 51.2167C241.454 51.2427 241.49 51.2636 241.532 51.2792C241.584 51.3052 241.709 51.2844 241.907 51.2167C242.574 50.9927 243.386 50.3417 244.344 49.2584C245.313 48.1854 246.287 46.8469 247.261 45.2375C248.23 43.6281 249.084 41.899 249.824 40.05C250.558 38.1906 251.053 36.3573 251.303 34.55C251.371 34.05 251.678 33.7792 252.219 33.7375C252.73 33.7375 253.037 33.9979 253.136 34.5084C253.647 37.2063 254.85 38.7896 256.74 39.2584C257.792 39.55 258.933 39.4406 260.157 38.925C261.391 38.4146 262.49 37.5813 263.449 36.425C263.641 36.2479 263.855 36.149 264.094 36.1334C264.344 36.1073 264.563 36.175 264.761 36.3417Z" fill="black"/>
<path d="M7.50586 102.493H3.38086L2.25586 105.598H0.943359L5.19336 94.2227H5.79753L10.0475 105.598H8.65169L7.50586 102.493ZM3.81836 101.348H7.11003L5.86003 97.931L5.46419 96.2435H5.44336L5.04753 97.9727L3.81836 101.348Z" fill="black"/>
<path d="M15.1783 98.827C14.8554 98.7176 14.5585 98.6603 14.2825 98.6603C13.8241 98.6603 13.4543 98.7957 13.1783 99.0562C12.9127 99.3062 12.7512 99.6187 12.6991 99.9937V105.598H11.4075V97.5978H12.3033L12.5533 98.577H12.6158C12.8085 98.2176 13.0429 97.9416 13.3241 97.7437C13.6158 97.5353 13.9804 97.4312 14.4283 97.4312C14.7304 97.4312 15.0741 97.4884 15.4491 97.5978L15.1783 98.827Z" fill="black"/>
<path d="M22.306 105.077C21.9831 105.316 21.6029 105.488 21.1602 105.598C20.7279 105.723 20.2695 105.785 19.7852 105.785C19.1706 105.785 18.6497 105.686 18.2227 105.493C17.7904 105.301 17.4362 105.025 17.1602 104.66C16.8945 104.285 16.7018 103.842 16.5768 103.327C16.4622 102.801 16.4102 102.223 16.4102 101.598C16.4102 100.238 16.707 99.2018 17.306 98.4935C17.8997 97.7747 18.7539 97.4102 19.8685 97.4102C20.3789 97.4102 20.8164 97.4518 21.181 97.5352C21.5404 97.6081 21.8581 97.7174 22.1393 97.8685L21.7852 98.9727C21.5352 98.8372 21.2539 98.7331 20.9518 98.6602C20.6602 98.5768 20.3372 98.5352 19.9935 98.5352C18.4779 98.5352 17.7227 99.556 17.7227 101.598C17.7227 102.004 17.7643 102.389 17.8477 102.764C17.931 103.129 18.0612 103.452 18.2435 103.743C18.4362 104.025 18.6862 104.243 18.9935 104.41C19.2956 104.577 19.6706 104.66 20.1185 104.66C20.4935 104.66 20.832 104.608 21.1393 104.493C21.4414 104.384 21.6914 104.254 21.8893 104.098L22.306 105.077Z" fill="black"/>
<path d="M29.2096 105.598V101.035C29.2096 100.619 29.1783 100.259 29.1262 99.9519C29.0846 99.6342 28.9908 99.3686 28.8554 99.1602C28.7304 98.9519 28.5533 98.8009 28.3346 98.7019C28.1262 98.5925 27.8398 98.5352 27.4804 98.5352C26.9804 98.5352 26.5273 98.6967 26.1262 99.0144C25.72 99.3373 25.4648 99.754 25.3554 100.264V105.598H24.0637V94.3894H25.3554V98.4936H25.4179C25.6939 98.1602 26.0273 97.8998 26.4179 97.7019C26.8033 97.5092 27.2825 97.4102 27.8554 97.4102C28.2981 97.4102 28.6887 97.4623 29.0221 97.5561C29.3554 97.655 29.6314 97.8373 29.8554 98.0977C30.0741 98.3477 30.2356 98.6915 30.3346 99.1186C30.4283 99.5509 30.4804 100.098 30.4804 100.764V105.598H29.2096Z" fill="black"/>
<path d="M33.0865 97.5977H34.3782V105.598H33.0865V97.5977ZM32.8157 95.1602C32.8157 94.9259 32.899 94.7175 33.0657 94.5352C33.2323 94.3582 33.4407 94.2644 33.6907 94.2644C33.9511 94.2644 34.175 94.3582 34.3573 94.5352C34.5344 94.7175 34.6282 94.9259 34.6282 95.1602C34.6282 95.4102 34.5344 95.6186 34.3573 95.7852C34.175 95.9415 33.9511 96.0144 33.6907 96.0144C33.4407 96.0144 33.2323 95.9415 33.0657 95.7852C32.899 95.6186 32.8157 95.4102 32.8157 95.1602Z" fill="black"/>
<path d="M36.041 97.5977H37.291V96.0144L38.5827 95.6394V97.5977H40.7493V98.7227H38.5827V103.139C38.5827 103.697 38.6504 104.093 38.791 104.327C38.9264 104.551 39.166 104.66 39.4993 104.66C39.7754 104.66 40.0046 104.634 40.1868 104.577C40.3796 104.525 40.5931 104.447 40.8327 104.348L41.1243 105.327C40.8327 105.468 40.5098 105.577 40.166 105.66C39.8327 105.744 39.4681 105.785 39.0827 105.785C38.4264 105.785 37.9629 105.603 37.6868 105.244C37.4212 104.869 37.291 104.254 37.291 103.389V98.7227H36.041V97.5977Z" fill="black"/>
<path d="M48.3609 104.952C48.038 105.217 47.637 105.426 47.1526 105.577C46.6786 105.712 46.163 105.785 45.6109 105.785C45.012 105.785 44.4859 105.686 44.0276 105.493C43.5797 105.301 43.2151 105.025 42.9234 104.66C42.6422 104.285 42.4338 103.842 42.2984 103.327C42.1578 102.816 42.0901 102.238 42.0901 101.598C42.0901 100.238 42.387 99.2018 42.9859 98.4935C43.5953 97.7747 44.4703 97.4102 45.6109 97.4102C45.9703 97.4102 46.3297 97.4518 46.6943 97.5352C47.0536 97.6081 47.3713 97.7591 47.6526 97.9935C47.9443 98.2174 48.1786 98.5352 48.3609 98.9518C48.5536 99.3581 48.6526 99.8893 48.6526 100.556C48.6526 100.905 48.6161 101.296 48.5484 101.723H43.4026C43.4026 102.197 43.4495 102.613 43.5484 102.973C43.6422 103.337 43.788 103.639 43.9859 103.889C44.1943 104.139 44.4547 104.337 44.7776 104.473C45.1109 104.598 45.512 104.66 45.9859 104.66C46.3453 104.66 46.7047 104.598 47.0693 104.473C47.4286 104.348 47.6995 104.202 47.8818 104.035L48.3609 104.952ZM45.6109 98.5352C44.9859 98.5352 44.4859 98.7018 44.1109 99.0352C43.7359 99.3581 43.5068 99.9206 43.4234 100.723H47.4026C47.4026 99.9049 47.2411 99.3372 46.9234 99.0143C46.6161 98.6966 46.1786 98.5352 45.6109 98.5352Z" fill="black"/>
<path d="M56.1141 105.077C55.7912 105.316 55.411 105.488 54.9683 105.598C54.536 105.723 54.0776 105.785 53.5933 105.785C52.9787 105.785 52.4578 105.686 52.0308 105.493C51.5985 105.301 51.2443 105.025 50.9683 104.66C50.7026 104.285 50.5099 103.842 50.3849 103.327C50.2703 102.801 50.2183 102.223 50.2183 101.598C50.2183 100.238 50.5151 99.2018 51.1141 98.4935C51.7078 97.7747 52.562 97.4102 53.6766 97.4102C54.187 97.4102 54.6245 97.4518 54.9891 97.5352C55.3485 97.6081 55.6662 97.7174 55.9474 97.8685L55.5933 98.9727C55.3433 98.8372 55.062 98.7331 54.7599 98.6602C54.4683 98.5768 54.1453 98.5352 53.8016 98.5352C52.286 98.5352 51.5308 99.556 51.5308 101.598C51.5308 102.004 51.5724 102.389 51.6558 102.764C51.7391 103.129 51.8693 103.452 52.0516 103.743C52.2443 104.025 52.4943 104.243 52.8016 104.41C53.1037 104.577 53.4787 104.66 53.9266 104.66C54.3016 104.66 54.6401 104.608 54.9474 104.493C55.2495 104.384 55.4995 104.254 55.6974 104.098L56.1141 105.077Z" fill="black"/>
<path d="M56.8091 97.5977H58.0591V96.0144L59.3507 95.6394V97.5977H61.5174V98.7227H59.3507V103.139C59.3507 103.697 59.4185 104.093 59.5591 104.327C59.6945 104.551 59.9341 104.66 60.2674 104.66C60.5435 104.66 60.7726 104.634 60.9549 104.577C61.1476 104.525 61.3612 104.447 61.6007 104.348L61.8924 105.327C61.6007 105.468 61.2778 105.577 60.9341 105.66C60.6007 105.744 60.2362 105.785 59.8507 105.785C59.1945 105.785 58.731 105.603 58.4549 105.244C58.1893 104.869 58.0591 104.254 58.0591 103.389V98.7227H56.8091V97.5977Z" fill="black"/>
<path d="M67.1301 101.598C67.1301 100.238 67.427 99.2018 68.026 98.4935C68.6197 97.7747 69.4895 97.4102 70.6301 97.4102C71.2239 97.4102 71.7447 97.5091 72.1926 97.7018C72.6353 97.8997 72.9947 98.181 73.276 98.556C73.5676 98.9206 73.7812 99.3633 73.9218 99.8893C74.0572 100.405 74.1301 100.973 74.1301 101.598C74.1301 102.962 73.8228 104.004 73.2135 104.723C72.6145 105.431 71.7551 105.785 70.6301 105.785C70.0312 105.785 69.5103 105.686 69.0676 105.493C68.6197 105.301 68.2551 105.025 67.9635 104.66C67.6822 104.285 67.4739 103.842 67.3385 103.327C67.1978 102.801 67.1301 102.223 67.1301 101.598ZM68.4426 101.598C68.4426 102.004 68.4843 102.389 68.5676 102.764C68.651 103.139 68.776 103.467 68.9426 103.743C69.1093 104.025 69.328 104.243 69.6093 104.41C69.8853 104.577 70.2239 104.66 70.6301 104.66C72.0728 104.676 72.7968 103.655 72.7968 101.598C72.7968 101.181 72.7551 100.785 72.6718 100.41C72.5989 100.035 72.4739 99.7122 72.2968 99.431C72.1301 99.1549 71.9062 98.9414 71.6301 98.7852C71.3489 98.6185 71.0155 98.5352 70.6301 98.5352C69.1718 98.5247 68.4426 99.5456 68.4426 101.598Z" fill="black"/>
<path d="M75.2688 97.5978H76.5188V97.1395C76.5188 96.6551 76.55 96.2332 76.623 95.8687C76.7063 95.5093 76.8365 95.2176 77.0188 94.9937C77.1959 94.7593 77.4355 94.5874 77.7271 94.4728C78.0188 94.3634 78.3782 94.3062 78.8105 94.3062C79.1438 94.3062 79.4407 94.327 79.7063 94.3687C79.9667 94.4103 80.248 94.4884 80.5396 94.5978L80.248 95.6812C79.998 95.5718 79.7584 95.5041 79.5396 95.4728C79.3313 95.4468 79.1282 95.4312 78.9355 95.4312C78.6542 95.4312 78.4407 95.4728 78.2896 95.5562C78.1334 95.6395 78.024 95.7645 77.9563 95.9312C77.8834 96.0978 77.8365 96.3009 77.8105 96.5353C77.7948 96.7749 77.7896 97.0509 77.7896 97.3687V97.5978H79.9146V98.7228H77.7896V105.598H76.5188V98.7228H75.2688V97.5978Z" fill="black"/>
<path d="M84.4573 97.5977H85.7073V96.0144L86.9989 95.6394V97.5977H89.1656V98.7227H86.9989V103.139C86.9989 103.697 87.0667 104.093 87.2073 104.327C87.3427 104.551 87.5823 104.66 87.9156 104.66C88.1917 104.66 88.4208 104.634 88.6031 104.577C88.7958 104.525 89.0094 104.447 89.2489 104.348L89.5406 105.327C89.2489 105.468 88.926 105.577 88.5823 105.66C88.2489 105.744 87.8844 105.785 87.4989 105.785C86.8427 105.785 86.3792 105.603 86.1031 105.244C85.8375 104.869 85.7073 104.254 85.7073 103.389V98.7227H84.4573V97.5977Z" fill="black"/>
<path d="M96.0897 105.598V101.035C96.0897 100.619 96.0584 100.259 96.0063 99.9519C95.9647 99.6342 95.8709 99.3686 95.7355 99.1602C95.6105 98.9519 95.4334 98.8009 95.2147 98.7019C95.0063 98.5925 94.7199 98.5352 94.3605 98.5352C93.8605 98.5352 93.4074 98.6967 93.0063 99.0144C92.6001 99.3373 92.3449 99.754 92.2355 100.264V105.598H90.9438V94.3894H92.2355V98.4936H92.298C92.5741 98.1602 92.9074 97.8998 93.298 97.7019C93.6834 97.5092 94.1626 97.4102 94.7355 97.4102C95.1782 97.4102 95.5688 97.4623 95.9022 97.5561C96.2355 97.655 96.5116 97.8373 96.7355 98.0977C96.9543 98.3477 97.1157 98.6915 97.2147 99.1186C97.3084 99.5509 97.3605 100.098 97.3605 100.764V105.598H96.0897Z" fill="black"/>
<path d="M105.529 104.952C105.206 105.217 104.805 105.426 104.321 105.577C103.847 105.712 103.331 105.785 102.779 105.785C102.18 105.785 101.654 105.686 101.196 105.493C100.748 105.301 100.383 105.025 100.092 104.66C99.8104 104.285 99.6021 103.842 99.4666 103.327C99.326 102.816 99.2583 102.238 99.2583 101.598C99.2583 100.238 99.5552 99.2018 100.154 98.4935C100.764 97.7747 101.639 97.4102 102.779 97.4102C103.139 97.4102 103.498 97.4518 103.862 97.5352C104.222 97.6081 104.54 97.7591 104.821 97.9935C105.112 98.2174 105.347 98.5352 105.529 98.9518C105.722 99.3581 105.821 99.8893 105.821 100.556C105.821 100.905 105.784 101.296 105.717 101.723H100.571C100.571 102.197 100.618 102.613 100.717 102.973C100.81 103.337 100.956 103.639 101.154 103.889C101.362 104.139 101.623 104.337 101.946 104.473C102.279 104.598 102.68 104.66 103.154 104.66C103.514 104.66 103.873 104.598 104.237 104.473C104.597 104.348 104.868 104.202 105.05 104.035L105.529 104.952ZM102.779 98.5352C102.154 98.5352 101.654 98.7018 101.279 99.0352C100.904 99.3581 100.675 99.9206 100.592 100.723H104.571C104.571 99.9049 104.409 99.3372 104.092 99.0143C103.784 98.6966 103.347 98.5352 102.779 98.5352Z" fill="black"/>
<path d="M112.367 97.5977H113.658V105.598H112.367V97.5977ZM112.096 95.1602C112.096 94.9259 112.179 94.7175 112.346 94.5352C112.512 94.3582 112.721 94.2644 112.971 94.2644C113.231 94.2644 113.455 94.3582 113.637 94.5352C113.814 94.7175 113.908 94.9259 113.908 95.1602C113.908 95.4102 113.814 95.6186 113.637 95.7852C113.455 95.9415 113.231 96.0144 112.971 96.0144C112.721 96.0144 112.512 95.9415 112.346 95.7852C112.179 95.6186 112.096 95.4102 112.096 95.1602Z" fill="black"/>
<path d="M121.53 105.598V101.035C121.53 100.202 121.405 99.5768 121.155 99.1602C120.915 98.7435 120.478 98.5352 119.842 98.5352C119.269 98.5352 118.8 98.6914 118.425 98.9935C118.061 99.2852 117.811 99.6602 117.675 100.118V105.598H116.384V97.5977H117.28L117.53 98.5768H117.592C117.842 98.2331 118.181 97.9518 118.613 97.7435C119.04 97.5247 119.556 97.4102 120.155 97.4102C120.597 97.4102 120.978 97.4622 121.3 97.556C121.634 97.6549 121.91 97.8372 122.134 98.0977C122.353 98.3477 122.519 98.6914 122.634 99.1185C122.743 99.5508 122.8 100.098 122.8 100.764V105.598H121.53Z" fill="black"/>
<path d="M124.073 97.5977H125.323V96.0144L126.615 95.6394V97.5977H128.782V98.7227H126.615V103.139C126.615 103.697 126.683 104.093 126.823 104.327C126.959 104.551 127.198 104.66 127.532 104.66C127.808 104.66 128.037 104.634 128.219 104.577C128.412 104.525 128.625 104.447 128.865 104.348L129.157 105.327C128.865 105.468 128.542 105.577 128.198 105.66C127.865 105.744 127.5 105.785 127.115 105.785C126.459 105.785 125.995 105.603 125.719 105.244C125.453 104.869 125.323 104.254 125.323 103.389V98.7227H124.073V97.5977Z" fill="black"/>
<path d="M136.393 104.952C136.07 105.217 135.669 105.426 135.185 105.577C134.711 105.712 134.195 105.785 133.643 105.785C133.044 105.785 132.518 105.686 132.06 105.493C131.612 105.301 131.247 105.025 130.956 104.66C130.674 104.285 130.466 103.842 130.331 103.327C130.19 102.816 130.122 102.238 130.122 101.598C130.122 100.238 130.419 99.2018 131.018 98.4935C131.628 97.7747 132.503 97.4102 133.643 97.4102C134.003 97.4102 134.362 97.4518 134.726 97.5352C135.086 97.6081 135.404 97.7591 135.685 97.9935C135.976 98.2174 136.211 98.5352 136.393 98.9518C136.586 99.3581 136.685 99.8893 136.685 100.556C136.685 100.905 136.648 101.296 136.581 101.723H131.435C131.435 102.197 131.482 102.613 131.581 102.973C131.674 103.337 131.82 103.639 132.018 103.889C132.226 104.139 132.487 104.337 132.81 104.473C133.143 104.598 133.544 104.66 134.018 104.66C134.378 104.66 134.737 104.598 135.101 104.473C135.461 104.348 135.732 104.202 135.914 104.035L136.393 104.952ZM133.643 98.5352C133.018 98.5352 132.518 98.7018 132.143 99.0352C131.768 99.3581 131.539 99.9206 131.456 100.723H135.435C135.435 99.9049 135.273 99.3372 134.956 99.0143C134.648 98.6966 134.211 98.5352 133.643 98.5352Z" fill="black"/>
<path d="M142.459 98.827C142.136 98.7176 141.839 98.6603 141.563 98.6603C141.104 98.6603 140.735 98.7957 140.459 99.0562C140.193 99.3062 140.031 99.6187 139.979 99.9937V105.598H138.688V97.5978H139.584L139.834 98.577H139.896C140.089 98.2176 140.323 97.9416 140.604 97.7437C140.896 97.5353 141.261 97.4312 141.709 97.4312C142.011 97.4312 142.354 97.4884 142.729 97.5978L142.459 98.827Z" fill="black"/>
<path d="M149.274 105.598V101.035C149.274 100.202 149.149 99.5768 148.899 99.1602C148.659 98.7435 148.222 98.5352 147.586 98.5352C147.013 98.5352 146.545 98.6914 146.17 98.9935C145.805 99.2852 145.555 99.6602 145.42 100.118V105.598H144.128V97.5977H145.024L145.274 98.5768H145.336C145.586 98.2331 145.925 97.9518 146.357 97.7435C146.784 97.5247 147.3 97.4102 147.899 97.4102C148.341 97.4102 148.722 97.4622 149.045 97.556C149.378 97.6549 149.654 97.8372 149.878 98.0977C150.097 98.3477 150.263 98.6914 150.378 99.1185C150.487 99.5508 150.545 100.098 150.545 100.764V105.598H149.274Z" fill="black"/>
<path d="M158.713 104.952C158.39 105.217 157.989 105.426 157.505 105.577C157.031 105.712 156.515 105.785 155.963 105.785C155.364 105.785 154.838 105.686 154.38 105.493C153.932 105.301 153.567 105.025 153.276 104.66C152.994 104.285 152.786 103.842 152.651 103.327C152.51 102.816 152.442 102.238 152.442 101.598C152.442 100.238 152.739 99.2018 153.338 98.4935C153.948 97.7747 154.823 97.4102 155.963 97.4102C156.323 97.4102 156.682 97.4518 157.047 97.5352C157.406 97.6081 157.724 97.7591 158.005 97.9935C158.297 98.2174 158.531 98.5352 158.713 98.9518C158.906 99.3581 159.005 99.8893 159.005 100.556C159.005 100.905 158.968 101.296 158.901 101.723H153.755C153.755 102.197 153.802 102.613 153.901 102.973C153.994 103.337 154.14 103.639 154.338 103.889C154.547 104.139 154.807 104.337 155.13 104.473C155.463 104.598 155.864 104.66 156.338 104.66C156.698 104.66 157.057 104.598 157.422 104.473C157.781 104.348 158.052 104.202 158.234 104.035L158.713 104.952ZM155.963 98.5352C155.338 98.5352 154.838 98.7018 154.463 99.0352C154.088 99.3581 153.859 99.9206 153.776 100.723H157.755C157.755 99.9049 157.593 99.3372 157.276 99.0143C156.968 98.6966 156.531 98.5352 155.963 98.5352Z" fill="black"/>
<path d="M159.945 97.5977H161.195V96.0144L162.487 95.6394V97.5977H164.654V98.7227H162.487V103.139C162.487 103.697 162.555 104.093 162.695 104.327C162.831 104.551 163.07 104.66 163.404 104.66C163.68 104.66 163.909 104.634 164.091 104.577C164.284 104.525 164.497 104.447 164.737 104.348L165.029 105.327C164.737 105.468 164.414 105.577 164.07 105.66C163.737 105.744 163.372 105.785 162.987 105.785C162.331 105.785 161.867 105.603 161.591 105.244C161.326 104.869 161.195 104.254 161.195 103.389V98.7227H159.945V97.5977Z" fill="black"/>
<path d="M165.994 104.91C165.994 104.66 166.078 104.462 166.244 104.306C166.411 104.139 166.625 104.056 166.89 104.056C167.224 104.056 167.494 104.176 167.703 104.41C167.911 104.634 168.015 104.973 168.015 105.431C168.015 105.806 167.958 106.139 167.849 106.431C167.75 106.723 167.609 106.973 167.432 107.181C167.265 107.389 167.078 107.556 166.869 107.681C166.671 107.817 166.474 107.916 166.265 107.973L165.869 107.348C166.255 107.207 166.541 106.978 166.724 106.66C166.916 106.337 167.015 106.02 167.015 105.702C166.916 105.744 166.828 105.764 166.744 105.764C166.52 105.764 166.338 105.692 166.203 105.556C166.062 105.405 165.994 105.192 165.994 104.91Z" fill="black"/>
<path d="M177.825 103.431C177.825 103.113 177.726 102.863 177.533 102.681C177.335 102.488 177.101 102.337 176.825 102.223C176.543 102.098 176.231 101.983 175.887 101.868C175.554 101.759 175.247 101.613 174.971 101.431C174.689 101.254 174.455 101.025 174.262 100.743C174.064 100.467 173.971 100.098 173.971 99.6393C173.971 98.8633 174.184 98.3008 174.616 97.9518C175.059 97.5924 175.668 97.4102 176.45 97.4102C177.033 97.4102 177.517 97.4622 177.908 97.556C178.293 97.6549 178.627 97.7747 178.908 97.9102L178.616 98.9727C178.366 98.8633 178.064 98.7643 177.721 98.681C177.372 98.5872 177.002 98.5352 176.616 98.5352C176.142 98.5352 175.793 98.6185 175.575 98.7852C175.351 98.9414 175.241 99.2122 175.241 99.5977C175.241 99.8789 175.335 100.092 175.533 100.243C175.726 100.4 175.96 100.535 176.241 100.66C176.533 100.785 176.846 100.91 177.179 101.035C177.512 101.15 177.814 101.301 178.096 101.493C178.387 101.676 178.627 101.921 178.825 102.223C179.017 102.514 179.116 102.9 179.116 103.368C179.116 103.717 179.054 104.046 178.929 104.348C178.814 104.639 178.642 104.9 178.408 105.118C178.184 105.327 177.898 105.488 177.554 105.598C177.205 105.723 176.793 105.785 176.325 105.785C175.71 105.785 175.189 105.723 174.762 105.598C174.346 105.488 173.991 105.358 173.7 105.202L174.075 104.118C174.325 104.259 174.642 104.384 175.033 104.493C175.434 104.608 175.835 104.66 176.241 104.66C176.7 104.66 177.075 104.572 177.366 104.389C177.668 104.212 177.825 103.889 177.825 103.431Z" fill="black"/>
<path d="M182.457 103.639C182.457 104.004 182.519 104.264 182.644 104.431C182.78 104.587 182.967 104.66 183.207 104.66C183.342 104.66 183.488 104.655 183.644 104.639C183.811 104.613 183.988 104.566 184.186 104.494L184.332 105.494C184.165 105.593 183.925 105.66 183.623 105.702C183.316 105.754 183.05 105.785 182.832 105.785C182.358 105.785 181.962 105.65 181.644 105.389C181.337 105.113 181.186 104.65 181.186 103.994V94.3894H182.457V103.639Z" fill="black"/>
<path d="M185.587 98.181C185.988 97.9466 186.462 97.7747 187.003 97.6602C187.545 97.5352 188.108 97.4727 188.691 97.4727C189.243 97.4727 189.691 97.5508 190.024 97.7018C190.358 97.8424 190.613 98.0352 190.795 98.2852C190.972 98.5247 191.092 98.7852 191.149 99.0768C191.201 99.3581 191.233 99.6393 191.233 99.931C191.233 100.572 191.212 101.197 191.17 101.806C191.139 102.421 191.128 102.993 191.128 103.535C191.128 103.926 191.139 104.301 191.17 104.66C191.212 105.009 191.274 105.337 191.358 105.639H190.42L190.087 104.514H190.003C189.905 104.671 189.78 104.816 189.628 104.952C189.488 105.092 189.316 105.217 189.108 105.327C188.91 105.441 188.681 105.53 188.42 105.598C188.155 105.681 187.847 105.723 187.503 105.723C187.17 105.723 186.847 105.671 186.545 105.577C186.253 105.467 186.003 105.316 185.795 105.118C185.587 104.91 185.42 104.671 185.295 104.389C185.17 104.113 185.108 103.801 185.108 103.452C185.108 102.983 185.201 102.592 185.399 102.285C185.592 101.967 185.863 101.717 186.212 101.535C186.556 101.342 186.967 101.212 187.441 101.139C187.925 101.056 188.467 101.014 189.066 101.014C189.201 101.014 189.342 101.014 189.483 101.014C189.634 101.014 189.785 101.025 189.941 101.035C189.967 100.717 189.983 100.431 189.983 100.181C189.983 99.5872 189.863 99.1758 189.628 98.9518C189.389 98.7174 188.967 98.5977 188.358 98.5977C188.175 98.5977 187.983 98.6133 187.774 98.6393C187.566 98.6549 187.347 98.6914 187.128 98.7435C186.905 98.7852 186.696 98.8424 186.503 98.9102C186.306 98.9831 186.134 99.056 185.983 99.1393L185.587 98.181ZM187.858 104.598C188.16 104.598 188.425 104.566 188.649 104.493C188.884 104.41 189.087 104.306 189.253 104.181C189.431 104.056 189.576 103.926 189.691 103.785C189.8 103.634 189.884 103.488 189.941 103.348V102.014C189.785 102.004 189.634 101.993 189.483 101.993C189.326 101.983 189.175 101.973 189.024 101.973C188.691 101.973 188.363 101.993 188.045 102.035C187.738 102.077 187.462 102.15 187.212 102.243C186.972 102.342 186.785 102.483 186.649 102.66C186.509 102.842 186.441 103.066 186.441 103.327C186.441 103.702 186.571 104.009 186.837 104.243C187.097 104.483 187.441 104.598 187.858 104.598Z" fill="black"/>
<path d="M196.002 102.785L196.46 104.327H196.523L196.877 102.764L198.44 97.5977H199.731L197.356 104.785C197.174 105.301 196.992 105.796 196.815 106.285C196.648 106.785 196.45 107.223 196.231 107.598C196.023 107.983 195.783 108.29 195.523 108.514C195.257 108.749 194.945 108.868 194.585 108.868C194.21 108.868 193.898 108.816 193.648 108.723L193.877 107.618C194.012 107.671 194.148 107.702 194.273 107.702C194.575 107.702 194.867 107.54 195.148 107.223C195.424 106.9 195.653 106.358 195.835 105.598L192.606 97.5977H194.085L196.002 102.785Z" fill="black"/>
<path d="M206.937 104.952C206.614 105.217 206.213 105.426 205.729 105.577C205.255 105.712 204.739 105.785 204.187 105.785C203.588 105.785 203.062 105.686 202.604 105.493C202.156 105.301 201.792 105.025 201.5 104.66C201.219 104.285 201.01 103.842 200.875 103.327C200.734 102.816 200.667 102.238 200.667 101.598C200.667 100.238 200.963 99.2018 201.562 98.4935C202.172 97.7747 203.047 97.4102 204.187 97.4102C204.547 97.4102 204.906 97.4518 205.271 97.5352C205.63 97.6081 205.948 97.7591 206.229 97.9935C206.521 98.2174 206.755 98.5352 206.937 98.9518C207.13 99.3581 207.229 99.8893 207.229 100.556C207.229 100.905 207.193 101.296 207.125 101.723H201.979C201.979 102.197 202.026 102.613 202.125 102.973C202.219 103.337 202.364 103.639 202.562 103.889C202.771 104.139 203.031 104.337 203.354 104.473C203.687 104.598 204.088 104.66 204.562 104.66C204.922 104.66 205.281 104.598 205.646 104.473C206.005 104.348 206.276 104.202 206.458 104.035L206.937 104.952ZM204.187 98.5352C203.562 98.5352 203.062 98.7018 202.687 99.0352C202.312 99.3581 202.083 99.9206 202 100.723H205.979C205.979 99.9049 205.818 99.3372 205.5 99.0143C205.193 98.6966 204.755 98.5352 204.187 98.5352Z" fill="black"/>
<path d="M213.003 98.827C212.68 98.7176 212.383 98.6603 212.107 98.6603C211.649 98.6603 211.279 98.7957 211.003 99.0562C210.737 99.3062 210.576 99.6187 210.524 99.9937V105.598H209.232V97.5978H210.128L210.378 98.577H210.44C210.633 98.2176 210.867 97.9416 211.149 97.7437C211.44 97.5353 211.805 97.4312 212.253 97.4312C212.555 97.4312 212.899 97.4884 213.274 97.5978L213.003 98.827Z" fill="black"/>
<path d="M218.507 101.598C218.507 100.238 218.803 99.2018 219.402 98.4935C219.996 97.7747 220.866 97.4102 222.007 97.4102C222.6 97.4102 223.121 97.5091 223.569 97.7018C224.012 97.8997 224.371 98.181 224.652 98.556C224.944 98.9206 225.158 99.3633 225.298 99.8893C225.434 100.405 225.507 100.973 225.507 101.598C225.507 102.962 225.199 104.004 224.59 104.723C223.991 105.431 223.132 105.785 222.007 105.785C221.408 105.785 220.887 105.686 220.444 105.493C219.996 105.301 219.632 105.025 219.34 104.66C219.059 104.285 218.85 103.842 218.715 103.327C218.574 102.801 218.507 102.223 218.507 101.598ZM219.819 101.598C219.819 102.004 219.861 102.389 219.944 102.764C220.027 103.139 220.152 103.467 220.319 103.743C220.486 104.025 220.705 104.243 220.986 104.41C221.262 104.577 221.6 104.66 222.007 104.66C223.449 104.676 224.173 103.655 224.173 101.598C224.173 101.181 224.132 100.785 224.048 100.41C223.975 100.035 223.85 99.7122 223.673 99.431C223.507 99.1549 223.283 98.9414 223.007 98.7852C222.725 98.6185 222.392 98.5352 222.007 98.5352C220.548 98.5247 219.819 99.5456 219.819 101.598Z" fill="black"/>
<path d="M226.645 97.5978H227.895V97.1395C227.895 96.6551 227.926 96.2332 227.999 95.8687C228.083 95.5093 228.213 95.2176 228.395 94.9937C228.572 94.7593 228.812 94.5874 229.103 94.4728C229.395 94.3634 229.754 94.3062 230.187 94.3062C230.52 94.3062 230.817 94.327 231.083 94.3687C231.343 94.4103 231.624 94.4884 231.916 94.5978L231.624 95.6812C231.374 95.5718 231.135 95.5041 230.916 95.4728C230.708 95.4468 230.504 95.4312 230.312 95.4312C230.03 95.4312 229.817 95.4728 229.666 95.5562C229.51 95.6395 229.4 95.7645 229.333 95.9312C229.26 96.0978 229.213 96.3009 229.187 96.5353C229.171 96.7749 229.166 97.0509 229.166 97.3687V97.5978H231.291V98.7228H229.166V105.598H227.895V98.7228H226.645V97.5978Z" fill="black"/>
<path d="M236.896 94.3894H238.188V98.3894H238.25C238.485 98.0717 238.792 97.8269 239.167 97.6602C239.552 97.4936 239.969 97.4102 240.417 97.4102C241.458 97.4102 242.235 97.7436 242.75 98.4102C243.261 99.0665 243.521 100.087 243.521 101.473C243.521 102.863 243.177 103.926 242.5 104.66C241.818 105.384 240.86 105.744 239.625 105.744C239.026 105.744 238.485 105.681 238 105.556C237.511 105.421 237.146 105.28 236.896 105.139V94.3894ZM240.188 98.5352C239.656 98.5352 239.229 98.6915 238.896 98.9936C238.563 99.2852 238.323 99.7019 238.188 100.244V104.264C238.38 104.389 238.625 104.483 238.917 104.535C239.208 104.593 239.505 104.619 239.813 104.619C240.531 104.619 241.11 104.363 241.542 103.848C241.969 103.337 242.188 102.535 242.188 101.452C242.188 101.035 242.151 100.65 242.083 100.285C242.011 99.9259 241.896 99.6186 241.729 99.3686C241.573 99.1082 241.365 98.905 241.104 98.7644C240.854 98.6134 240.547 98.5352 240.188 98.5352Z" fill="black"/>
<path d="M246.682 97.5977V102.16C246.682 102.577 246.703 102.947 246.744 103.264C246.797 103.572 246.88 103.827 246.994 104.035C247.119 104.243 247.276 104.405 247.474 104.514C247.682 104.613 247.942 104.66 248.265 104.66C248.541 104.66 248.791 104.618 249.015 104.535C249.25 104.441 249.453 104.316 249.619 104.16C249.797 103.993 249.953 103.806 250.078 103.598C250.213 103.389 250.328 103.176 250.411 102.952V97.5977H251.703V103.327C251.703 103.717 251.713 104.118 251.744 104.535C251.771 104.941 251.812 105.296 251.869 105.598H250.994L250.682 104.327H250.599C250.349 104.743 250.015 105.092 249.599 105.368C249.182 105.645 248.651 105.785 248.015 105.785C247.583 105.785 247.208 105.733 246.89 105.639C246.567 105.546 246.297 105.368 246.078 105.118C245.854 104.858 245.687 104.509 245.578 104.077C245.463 103.65 245.411 103.098 245.411 102.431V97.5977H246.682Z" fill="black"/>
<path d="M260.285 105.973C260.285 106.999 260.004 107.754 259.452 108.244C258.91 108.744 258.103 108.994 257.035 108.994C256.395 108.994 255.874 108.952 255.473 108.869C255.082 108.785 254.749 108.681 254.473 108.556L254.827 107.473C255.061 107.566 255.327 107.66 255.618 107.744C255.921 107.827 256.316 107.869 256.806 107.869C257.249 107.869 257.608 107.827 257.889 107.744C258.181 107.671 258.41 107.54 258.577 107.348C258.743 107.165 258.858 106.921 258.931 106.619C258.999 106.327 259.035 105.978 259.035 105.577V104.806H258.973C258.749 105.129 258.473 105.369 258.139 105.535C257.816 105.686 257.389 105.764 256.848 105.764C255.775 105.764 254.983 105.431 254.473 104.764C253.973 104.098 253.723 103.056 253.723 101.639C253.723 100.264 254.04 99.2227 254.681 98.5144C255.332 97.8061 256.296 97.4519 257.577 97.4519C258.171 97.4519 258.686 97.504 259.118 97.5977C259.561 97.6967 259.952 97.8061 260.285 97.9311V105.973ZM257.077 104.66C257.618 104.66 258.04 104.53 258.348 104.264C258.665 103.988 258.889 103.556 259.014 102.973V98.8686C258.582 98.6759 258.04 98.5769 257.389 98.5769C256.65 98.5769 256.077 98.8269 255.66 99.3269C255.243 99.8165 255.035 100.577 255.035 101.619C255.035 102.066 255.066 102.473 255.139 102.848C255.223 103.223 255.337 103.546 255.493 103.806C255.66 104.072 255.868 104.28 256.118 104.431C256.379 104.587 256.702 104.66 257.077 104.66Z" fill="black"/>
<path d="M266.273 103.431C266.273 103.113 266.174 102.863 265.981 102.681C265.783 102.488 265.549 102.337 265.273 102.223C264.992 102.098 264.679 101.983 264.335 101.868C264.002 101.759 263.695 101.613 263.419 101.431C263.138 101.254 262.903 101.025 262.71 100.743C262.513 100.467 262.419 100.098 262.419 99.6393C262.419 98.8633 262.632 98.3008 263.065 97.9518C263.507 97.5924 264.117 97.4102 264.898 97.4102C265.481 97.4102 265.966 97.4622 266.356 97.556C266.742 97.6549 267.075 97.7747 267.356 97.9102L267.065 98.9727C266.815 98.8633 266.513 98.7643 266.169 98.681C265.82 98.5872 265.45 98.5352 265.065 98.5352C264.591 98.5352 264.242 98.6185 264.023 98.7852C263.799 98.9414 263.69 99.2122 263.69 99.5977C263.69 99.8789 263.783 100.092 263.981 100.243C264.174 100.4 264.408 100.535 264.69 100.66C264.981 100.785 265.294 100.91 265.627 101.035C265.96 101.15 266.263 101.301 266.544 101.493C266.835 101.676 267.075 101.921 267.273 102.223C267.466 102.514 267.565 102.9 267.565 103.368C267.565 103.717 267.502 104.046 267.377 104.348C267.263 104.639 267.091 104.9 266.856 105.118C266.632 105.327 266.346 105.488 266.002 105.598C265.653 105.723 265.242 105.785 264.773 105.785C264.158 105.785 263.638 105.723 263.21 105.598C262.794 105.488 262.44 105.358 262.148 105.202L262.523 104.118C262.773 104.259 263.091 104.384 263.481 104.493C263.882 104.608 264.283 104.66 264.69 104.66C265.148 104.66 265.523 104.572 265.815 104.389C266.117 104.212 266.273 103.889 266.273 103.431Z" fill="black"/>
<path d="M269.051 104.91C269.051 104.66 269.134 104.462 269.301 104.306C269.467 104.139 269.681 104.056 269.946 104.056C270.28 104.056 270.551 104.176 270.759 104.41C270.967 104.634 271.071 104.973 271.071 105.431C271.071 105.806 271.014 106.139 270.905 106.431C270.806 106.723 270.665 106.973 270.488 107.181C270.321 107.389 270.134 107.556 269.926 107.681C269.728 107.817 269.53 107.916 269.321 107.973L268.926 107.348C269.311 107.207 269.597 106.978 269.78 106.66C269.972 106.337 270.071 106.02 270.071 105.702C269.972 105.744 269.884 105.764 269.801 105.764C269.577 105.764 269.394 105.692 269.259 105.556C269.118 105.405 269.051 105.192 269.051 104.91Z" fill="black"/>
<path d="M278.027 102.598C278.027 102.181 278.095 101.78 278.235 101.389C278.386 101.004 278.589 100.639 278.839 100.306C279.1 99.9727 279.391 99.6707 279.714 99.3894C280.048 99.1134 280.386 98.8686 280.735 98.6602C280.485 98.2748 280.261 97.8894 280.069 97.5144C279.886 97.129 279.798 96.7019 279.798 96.2436C279.798 95.9936 279.839 95.754 279.923 95.5144C280.006 95.2644 280.136 95.0457 280.319 94.8477C280.511 94.655 280.756 94.504 281.048 94.3894C281.339 94.2644 281.694 94.2019 282.11 94.2019C282.553 94.2019 282.923 94.2592 283.214 94.3686C283.516 94.4832 283.761 94.629 283.944 94.8061C284.121 94.9884 284.246 95.1967 284.319 95.4311C284.402 95.655 284.444 95.8842 284.444 96.1186C284.444 96.5665 284.266 97.0248 283.923 97.4936C283.574 97.9675 283.032 98.4259 282.298 98.8686C282.464 99.1759 282.657 99.4936 282.881 99.8269C283.115 100.15 283.36 100.468 283.61 100.785C283.871 101.108 284.136 101.426 284.402 101.744C284.662 102.051 284.928 102.337 285.194 102.598C285.319 102.473 285.433 102.316 285.548 102.119C285.673 101.926 285.787 101.718 285.902 101.494C286.011 101.275 286.11 101.046 286.194 100.806C286.287 100.572 286.371 100.348 286.444 100.139L287.444 100.598C287.371 100.78 287.277 101.004 287.152 101.264C287.037 101.514 286.912 101.775 286.777 102.035C286.636 102.285 286.49 102.535 286.339 102.785C286.183 103.025 286.048 103.218 285.923 103.369C286.141 103.593 286.345 103.78 286.527 103.931C286.704 104.087 286.871 104.218 287.027 104.327C287.194 104.441 287.345 104.546 287.485 104.639C287.621 104.723 287.766 104.806 287.923 104.889L287.131 105.785C286.558 105.509 285.912 105.014 285.194 104.306C284.996 104.504 284.782 104.691 284.548 104.869C284.324 105.035 284.069 105.191 283.777 105.327C283.485 105.468 283.162 105.577 282.819 105.66C282.47 105.744 282.089 105.785 281.673 105.785C281.173 105.785 280.699 105.712 280.256 105.577C279.824 105.441 279.444 105.238 279.11 104.973C278.777 104.697 278.511 104.363 278.319 103.973C278.121 103.572 278.027 103.113 278.027 102.598ZM284.444 103.494C284.121 103.191 283.808 102.858 283.506 102.494C283.214 102.134 282.928 101.775 282.652 101.41C282.386 101.051 282.136 100.702 281.902 100.369C281.678 100.025 281.49 99.7227 281.339 99.4727C281.048 99.6811 280.777 99.8998 280.527 100.119C280.287 100.343 280.074 100.587 279.881 100.848C279.699 101.098 279.553 101.369 279.444 101.66C279.345 101.941 279.298 102.244 279.298 102.577C279.298 102.91 279.365 103.212 279.506 103.473C279.641 103.723 279.829 103.941 280.069 104.119C280.319 104.301 280.595 104.441 280.902 104.535C281.204 104.619 281.532 104.66 281.881 104.66C282.141 104.66 282.402 104.629 282.652 104.556C282.902 104.488 283.136 104.405 283.36 104.306C283.579 104.197 283.782 104.072 283.964 103.931C284.157 103.796 284.319 103.65 284.444 103.494ZM281.048 96.2436C281.048 96.5769 281.11 96.905 281.235 97.2227C281.371 97.53 281.548 97.8373 281.756 98.1394C282.324 97.78 282.72 97.4519 282.944 97.1602C283.162 96.8582 283.277 96.5925 283.277 96.3686C283.277 96.0248 283.194 95.7436 283.027 95.5352C282.86 95.3269 282.574 95.2227 282.173 95.2227C281.782 95.2227 281.496 95.3217 281.319 95.5144C281.136 95.6967 281.048 95.9415 281.048 96.2436Z" fill="black"/>
<path d="M23.2039 119.598H24.4539V118.014L25.7455 117.639V119.598H27.9122V120.723H25.7455V125.139C25.7455 125.697 25.8132 126.093 25.9539 126.327C26.0893 126.551 26.3289 126.66 26.6622 126.66C26.9382 126.66 27.1674 126.634 27.3497 126.577C27.5424 126.525 27.7559 126.447 27.9955 126.348L28.2872 127.327C27.9955 127.468 27.6726 127.577 27.3289 127.66C26.9955 127.744 26.6309 127.785 26.2455 127.785C25.5893 127.785 25.1257 127.603 24.8497 127.244C24.5841 126.869 24.4539 126.254 24.4539 125.389V120.723H23.2039V119.598Z" fill="black"/>
<path d="M34.8363 127.598V123.035C34.8363 122.619 34.805 122.259 34.7529 121.952C34.7113 121.634 34.6175 121.369 34.4821 121.16C34.3571 120.952 34.18 120.801 33.9613 120.702C33.7529 120.593 33.4665 120.535 33.1071 120.535C32.6071 120.535 32.154 120.697 31.7529 121.014C31.3467 121.337 31.0915 121.754 30.9821 122.264V127.598H29.6904V116.389H30.9821V120.494H31.0446C31.3206 120.16 31.654 119.9 32.0446 119.702C32.43 119.509 32.9092 119.41 33.4821 119.41C33.9248 119.41 34.3154 119.462 34.6488 119.556C34.9821 119.655 35.2581 119.837 35.4821 120.098C35.7008 120.348 35.8623 120.691 35.9613 121.119C36.055 121.551 36.1071 122.098 36.1071 122.764V127.598H34.8363Z" fill="black"/>
<path d="M44.2757 126.952C43.9528 127.217 43.5518 127.426 43.0674 127.577C42.5934 127.712 42.0778 127.785 41.5257 127.785C40.9268 127.785 40.4007 127.686 39.9424 127.493C39.4945 127.301 39.1299 127.025 38.8382 126.66C38.557 126.285 38.3486 125.842 38.2132 125.327C38.0726 124.816 38.0049 124.238 38.0049 123.598C38.0049 122.238 38.3018 121.202 38.9007 120.493C39.5101 119.775 40.3851 119.41 41.5257 119.41C41.8851 119.41 42.2445 119.452 42.609 119.535C42.9684 119.608 43.2861 119.759 43.5674 119.993C43.859 120.217 44.0934 120.535 44.2757 120.952C44.4684 121.358 44.5674 121.889 44.5674 122.556C44.5674 122.905 44.5309 123.296 44.4632 123.723H39.3174C39.3174 124.197 39.3643 124.613 39.4632 124.973C39.557 125.337 39.7028 125.639 39.9007 125.889C40.109 126.139 40.3695 126.337 40.6924 126.473C41.0257 126.598 41.4268 126.66 41.9007 126.66C42.2601 126.66 42.6195 126.598 42.984 126.473C43.3434 126.348 43.6143 126.202 43.7965 126.035L44.2757 126.952ZM41.5257 120.535C40.9007 120.535 40.4007 120.702 40.0257 121.035C39.6507 121.358 39.4215 121.921 39.3382 122.723H43.3174C43.3174 121.905 43.1559 121.337 42.8382 121.014C42.5309 120.697 42.0934 120.535 41.5257 120.535Z" fill="black"/>
<path d="M56.3006 127.077C55.9777 127.316 55.5975 127.488 55.1548 127.598C54.7225 127.723 54.2642 127.785 53.7798 127.785C53.1652 127.785 52.6444 127.686 52.2173 127.493C51.785 127.301 51.4308 127.025 51.1548 126.66C50.8892 126.285 50.6965 125.842 50.5715 125.327C50.4569 124.801 50.4048 124.223 50.4048 123.598C50.4048 122.238 50.7017 121.202 51.3006 120.493C51.8944 119.775 52.7485 119.41 53.8631 119.41C54.3735 119.41 54.811 119.452 55.1756 119.535C55.535 119.608 55.8527 119.717 56.134 119.868L55.7798 120.973C55.5298 120.837 55.2485 120.733 54.9465 120.66C54.6548 120.577 54.3319 120.535 53.9881 120.535C52.4725 120.535 51.7173 121.556 51.7173 123.598C51.7173 124.004 51.759 124.389 51.8423 124.764C51.9256 125.129 52.0558 125.452 52.2381 125.743C52.4308 126.025 52.6808 126.243 52.9881 126.41C53.2902 126.577 53.6652 126.66 54.1131 126.66C54.4881 126.66 54.8267 126.608 55.134 126.493C55.436 126.384 55.686 126.254 55.884 126.098L56.3006 127.077Z" fill="black"/>
<path d="M57.6208 123.598C57.6208 122.238 57.9177 121.202 58.5167 120.493C59.1104 119.775 59.9802 119.41 61.1208 119.41C61.7146 119.41 62.2354 119.509 62.6833 119.702C63.1261 119.9 63.4854 120.181 63.7667 120.556C64.0583 120.921 64.2719 121.363 64.4125 121.889C64.5479 122.405 64.6208 122.973 64.6208 123.598C64.6208 124.962 64.3136 126.004 63.7042 126.723C63.1052 127.431 62.2458 127.785 61.1208 127.785C60.5219 127.785 60.0011 127.686 59.5583 127.493C59.1104 127.301 58.7458 127.025 58.4542 126.66C58.1729 126.285 57.9646 125.842 57.8292 125.327C57.6886 124.801 57.6208 124.223 57.6208 123.598ZM58.9333 123.598C58.9333 124.004 58.975 124.389 59.0583 124.764C59.1417 125.139 59.2667 125.467 59.4333 125.743C59.6 126.025 59.8188 126.243 60.1 126.41C60.3761 126.577 60.7146 126.66 61.1208 126.66C62.5636 126.676 63.2875 125.655 63.2875 123.598C63.2875 123.181 63.2458 122.785 63.1625 122.41C63.0896 122.035 62.9646 121.712 62.7875 121.431C62.6208 121.155 62.3969 120.941 62.1208 120.785C61.8396 120.618 61.5063 120.535 61.1208 120.535C59.6625 120.525 58.9333 121.546 58.9333 123.598Z" fill="black"/>
<path d="M72.7801 124.848C72.7801 125.389 72.7853 125.884 72.8009 126.327C72.8114 126.775 72.8634 127.212 72.9468 127.639H72.0718L71.7593 126.494H71.6968C71.4728 126.869 71.1603 127.181 70.7593 127.431C70.353 127.665 69.8843 127.785 69.3426 127.785C68.2697 127.785 67.478 127.452 66.9676 126.785C66.452 126.108 66.1968 125.056 66.1968 123.639C66.1968 122.264 66.5145 121.223 67.1551 120.514C67.8062 119.806 68.6968 119.452 69.8218 119.452C70.2072 119.452 70.5145 119.473 70.7384 119.514C70.9728 119.556 71.228 119.629 71.5093 119.723V116.389H72.7801V124.848ZM69.5509 126.66C70.0926 126.66 70.5197 126.525 70.8426 126.244C71.1603 125.968 71.3843 125.535 71.5093 124.952V120.994C71.3114 120.843 71.0926 120.738 70.8426 120.681C70.5926 120.613 70.2645 120.577 69.8634 120.577C69.1239 120.577 68.5509 120.822 68.1343 121.306C67.7176 121.796 67.5093 122.572 67.5093 123.639C67.5093 124.072 67.5405 124.473 67.6134 124.848C67.6812 125.223 67.7905 125.546 67.9468 125.806C68.1134 126.072 68.327 126.28 68.5926 126.431C68.853 126.587 69.1759 126.66 69.5509 126.66Z" fill="black"/>
<path d="M81.0758 126.952C80.7528 127.217 80.3518 127.426 79.8674 127.577C79.3935 127.712 78.8778 127.785 78.3258 127.785C77.7268 127.785 77.2008 127.686 76.7424 127.493C76.2945 127.301 75.9299 127.025 75.6383 126.66C75.357 126.285 75.1487 125.842 75.0133 125.327C74.8726 124.816 74.8049 124.238 74.8049 123.598C74.8049 122.238 75.1018 121.202 75.7008 120.493C76.3101 119.775 77.1851 119.41 78.3258 119.41C78.6851 119.41 79.0445 119.452 79.4091 119.535C79.7685 119.608 80.0862 119.759 80.3674 119.993C80.6591 120.217 80.8935 120.535 81.0758 120.952C81.2685 121.358 81.3674 121.889 81.3674 122.556C81.3674 122.905 81.331 123.296 81.2633 123.723H76.1174C76.1174 124.197 76.1643 124.613 76.2633 124.973C76.357 125.337 76.5028 125.639 76.7008 125.889C76.9091 126.139 77.1695 126.337 77.4924 126.473C77.8258 126.598 78.2268 126.66 78.7008 126.66C79.0601 126.66 79.4195 126.598 79.7841 126.473C80.1435 126.348 80.4143 126.202 80.5966 126.035L81.0758 126.952ZM78.3258 120.535C77.7008 120.535 77.2008 120.702 76.8258 121.035C76.4508 121.358 76.2216 121.921 76.1383 122.723H80.1174C80.1174 121.905 79.956 121.337 79.6383 121.014C79.331 120.697 78.8935 120.535 78.3258 120.535Z" fill="black"/>
<path d="M87.1412 120.827C86.8183 120.718 86.5214 120.66 86.2454 120.66C85.787 120.66 85.4172 120.796 85.1412 121.056C84.8756 121.306 84.7141 121.619 84.662 121.994V127.598H83.3704V119.598H84.2662L84.5162 120.577H84.5787C84.7714 120.218 85.0058 119.942 85.287 119.744C85.5787 119.535 85.9433 119.431 86.3912 119.431C86.6933 119.431 87.037 119.488 87.412 119.598L87.1412 120.827Z" fill="black"/>
<path d="M98.5408 124.493H94.4158L93.2908 127.598H91.9783L96.2283 116.223H96.8324L101.082 127.598H99.6866L98.5408 124.493ZM94.8533 123.348H98.1449L96.8949 119.931L96.4991 118.243H96.4783L96.0824 119.973L94.8533 123.348Z" fill="black"/>
<path d="M102.88 116.389H104.213V127.598H102.88V116.389Z" fill="black"/>
<path d="M116.558 119.598L118.391 124.264L118.787 125.806H118.829L119.141 124.243L120.558 119.598H121.766L119.079 127.764H118.454L116.371 122.493L116.058 121.181H116.016L115.683 122.514L113.683 127.764H113.058L110.266 119.598H111.662L113.246 124.243L113.516 125.806H113.537L113.912 124.223L115.621 119.598H116.558Z" fill="black"/>
<path d="M123.401 119.598H124.693V127.598H123.401V119.598ZM123.13 117.16C123.13 116.926 123.214 116.718 123.38 116.535C123.547 116.358 123.755 116.264 124.005 116.264C124.266 116.264 124.49 116.358 124.672 116.535C124.849 116.718 124.943 116.926 124.943 117.16C124.943 117.41 124.849 117.619 124.672 117.785C124.49 117.941 124.266 118.014 124.005 118.014C123.755 118.014 123.547 117.941 123.38 117.785C123.214 117.619 123.13 117.41 123.13 117.16Z" fill="black"/>
<path d="M130.939 125.431C130.939 125.113 130.84 124.863 130.648 124.681C130.45 124.488 130.215 124.337 129.939 124.223C129.658 124.098 129.346 123.983 129.002 123.868C128.669 123.759 128.361 123.613 128.085 123.431C127.804 123.254 127.57 123.025 127.377 122.743C127.179 122.467 127.085 122.098 127.085 121.639C127.085 120.863 127.299 120.301 127.731 119.952C128.174 119.592 128.783 119.41 129.564 119.41C130.148 119.41 130.632 119.462 131.023 119.556C131.408 119.655 131.742 119.775 132.023 119.91L131.731 120.973C131.481 120.863 131.179 120.764 130.835 120.681C130.486 120.587 130.117 120.535 129.731 120.535C129.257 120.535 128.908 120.618 128.689 120.785C128.465 120.941 128.356 121.212 128.356 121.598C128.356 121.879 128.45 122.092 128.648 122.243C128.84 122.4 129.075 122.535 129.356 122.66C129.648 122.785 129.96 122.91 130.294 123.035C130.627 123.15 130.929 123.301 131.21 123.493C131.502 123.676 131.742 123.921 131.939 124.223C132.132 124.514 132.231 124.9 132.231 125.368C132.231 125.717 132.169 126.046 132.044 126.348C131.929 126.639 131.757 126.9 131.523 127.118C131.299 127.327 131.012 127.488 130.669 127.598C130.32 127.723 129.908 127.785 129.439 127.785C128.825 127.785 128.304 127.723 127.877 127.598C127.46 127.488 127.106 127.358 126.814 127.202L127.189 126.118C127.439 126.259 127.757 126.384 128.148 126.493C128.549 126.608 128.95 126.66 129.356 126.66C129.814 126.66 130.189 126.572 130.481 126.389C130.783 126.212 130.939 125.889 130.939 125.431Z" fill="black"/>
<path d="M139.3 127.598V123.035C139.3 122.619 139.269 122.259 139.217 121.952C139.175 121.634 139.082 121.369 138.946 121.16C138.821 120.952 138.644 120.801 138.425 120.702C138.217 120.593 137.931 120.535 137.571 120.535C137.071 120.535 136.618 120.697 136.217 121.014C135.811 121.337 135.556 121.754 135.446 122.264V127.598H134.155V116.389H135.446V120.494H135.509C135.785 120.16 136.118 119.9 136.509 119.702C136.894 119.509 137.373 119.41 137.946 119.41C138.389 119.41 138.78 119.462 139.113 119.556C139.446 119.655 139.722 119.837 139.946 120.098C140.165 120.348 140.326 120.691 140.425 121.119C140.519 121.551 140.571 122.098 140.571 122.764V127.598H139.3Z" fill="black"/>
<path d="M148.74 126.952C148.417 127.217 148.016 127.426 147.531 127.577C147.058 127.712 146.542 127.785 145.99 127.785C145.391 127.785 144.865 127.686 144.406 127.493C143.959 127.301 143.594 127.025 143.302 126.66C143.021 126.285 142.813 125.842 142.677 125.327C142.537 124.816 142.469 124.238 142.469 123.598C142.469 122.238 142.766 121.202 143.365 120.493C143.974 119.775 144.849 119.41 145.99 119.41C146.349 119.41 146.709 119.452 147.073 119.535C147.433 119.608 147.75 119.759 148.031 119.993C148.323 120.217 148.558 120.535 148.74 120.952C148.933 121.358 149.031 121.889 149.031 122.556C149.031 122.905 148.995 123.296 148.927 123.723H143.781C143.781 124.197 143.828 124.613 143.927 124.973C144.021 125.337 144.167 125.639 144.365 125.889C144.573 126.139 144.834 126.337 145.156 126.473C145.49 126.598 145.891 126.66 146.365 126.66C146.724 126.66 147.084 126.598 147.448 126.473C147.808 126.348 148.078 126.202 148.261 126.035L148.74 126.952ZM145.99 120.535C145.365 120.535 144.865 120.702 144.49 121.035C144.115 121.358 143.886 121.921 143.802 122.723H147.781C147.781 121.905 147.62 121.337 147.302 121.014C146.995 120.697 146.558 120.535 145.99 120.535Z" fill="black"/>
<path d="M154.555 125.431C154.555 125.113 154.456 124.863 154.264 124.681C154.066 124.488 153.831 124.337 153.555 124.223C153.274 124.098 152.962 123.983 152.618 123.868C152.285 123.759 151.977 123.613 151.701 123.431C151.42 123.254 151.186 123.025 150.993 122.743C150.795 122.467 150.701 122.098 150.701 121.639C150.701 120.863 150.915 120.301 151.347 119.952C151.79 119.592 152.399 119.41 153.18 119.41C153.764 119.41 154.248 119.462 154.639 119.556C155.024 119.655 155.358 119.775 155.639 119.91L155.347 120.973C155.097 120.863 154.795 120.764 154.451 120.681C154.102 120.587 153.733 120.535 153.347 120.535C152.873 120.535 152.524 120.618 152.305 120.785C152.081 120.941 151.972 121.212 151.972 121.598C151.972 121.879 152.066 122.092 152.264 122.243C152.456 122.4 152.691 122.535 152.972 122.66C153.264 122.785 153.576 122.91 153.91 123.035C154.243 123.15 154.545 123.301 154.826 123.493C155.118 123.676 155.358 123.921 155.555 124.223C155.748 124.514 155.847 124.9 155.847 125.368C155.847 125.717 155.785 126.046 155.66 126.348C155.545 126.639 155.373 126.9 155.139 127.118C154.915 127.327 154.628 127.488 154.285 127.598C153.936 127.723 153.524 127.785 153.055 127.785C152.441 127.785 151.92 127.723 151.493 127.598C151.076 127.488 150.722 127.358 150.43 127.202L150.805 126.118C151.055 126.259 151.373 126.384 151.764 126.493C152.165 126.608 152.566 126.66 152.972 126.66C153.43 126.66 153.805 126.572 154.097 126.389C154.399 126.212 154.555 125.889 154.555 125.431Z" fill="black"/>
<path d="M162.313 119.598H163.605V127.598H162.313V119.598ZM162.042 117.16C162.042 116.926 162.126 116.718 162.292 116.535C162.459 116.358 162.667 116.264 162.917 116.264C163.178 116.264 163.402 116.358 163.584 116.535C163.761 116.718 163.855 116.926 163.855 117.16C163.855 117.41 163.761 117.619 163.584 117.785C163.402 117.941 163.178 118.014 162.917 118.014C162.667 118.014 162.459 117.941 162.292 117.785C162.126 117.619 162.042 117.41 162.042 117.16Z" fill="black"/>
<path d="M165.268 119.598H166.518V118.014L167.81 117.639V119.598H169.976V120.723H167.81V125.139C167.81 125.697 167.877 126.093 168.018 126.327C168.153 126.551 168.393 126.66 168.726 126.66C169.002 126.66 169.232 126.634 169.414 126.577C169.607 126.525 169.82 126.447 170.06 126.348L170.351 127.327C170.06 127.468 169.737 127.577 169.393 127.66C169.06 127.744 168.695 127.785 168.31 127.785C167.653 127.785 167.19 127.603 166.914 127.244C166.648 126.869 166.518 126.254 166.518 125.389V120.723H165.268V119.598Z" fill="black"/>
<path d="M181.485 127.077C181.162 127.316 180.782 127.488 180.339 127.598C179.907 127.723 179.448 127.785 178.964 127.785C178.35 127.785 177.829 127.686 177.402 127.493C176.969 127.301 176.615 127.025 176.339 126.66C176.073 126.285 175.881 125.842 175.756 125.327C175.641 124.801 175.589 124.223 175.589 123.598C175.589 122.238 175.886 121.202 176.485 120.493C177.079 119.775 177.933 119.41 179.047 119.41C179.558 119.41 179.995 119.452 180.36 119.535C180.719 119.608 181.037 119.717 181.318 119.868L180.964 120.973C180.714 120.837 180.433 120.733 180.131 120.66C179.839 120.577 179.516 120.535 179.172 120.535C177.657 120.535 176.902 121.556 176.902 123.598C176.902 124.004 176.943 124.389 177.027 124.764C177.11 125.129 177.24 125.452 177.422 125.743C177.615 126.025 177.865 126.243 178.172 126.41C178.475 126.577 178.85 126.66 179.297 126.66C179.672 126.66 180.011 126.608 180.318 126.493C180.62 126.384 180.87 126.254 181.068 126.098L181.485 127.077Z" fill="black"/>
<path d="M182.805 123.598C182.805 122.238 183.102 121.202 183.701 120.493C184.295 119.775 185.165 119.41 186.305 119.41C186.899 119.41 187.42 119.509 187.868 119.702C188.31 119.9 188.67 120.181 188.951 120.556C189.243 120.921 189.456 121.363 189.597 121.889C189.732 122.405 189.805 122.973 189.805 123.598C189.805 124.962 189.498 126.004 188.889 126.723C188.29 127.431 187.43 127.785 186.305 127.785C185.706 127.785 185.185 127.686 184.743 127.493C184.295 127.301 183.93 127.025 183.639 126.66C183.357 126.285 183.149 125.842 183.014 125.327C182.873 124.801 182.805 124.223 182.805 123.598ZM184.118 123.598C184.118 124.004 184.159 124.389 184.243 124.764C184.326 125.139 184.451 125.467 184.618 125.743C184.784 126.025 185.003 126.243 185.284 126.41C185.56 126.577 185.899 126.66 186.305 126.66C187.748 126.676 188.472 125.655 188.472 123.598C188.472 123.181 188.43 122.785 188.347 122.41C188.274 122.035 188.149 121.712 187.972 121.431C187.805 121.155 187.581 120.941 187.305 120.785C187.024 120.618 186.691 120.535 186.305 120.535C184.847 120.525 184.118 121.546 184.118 123.598Z" fill="black"/>
<path d="M192.964 119.598V124.16C192.964 124.577 192.985 124.947 193.027 125.264C193.079 125.572 193.162 125.827 193.277 126.035C193.402 126.243 193.558 126.405 193.756 126.514C193.964 126.613 194.225 126.66 194.548 126.66C194.824 126.66 195.074 126.618 195.298 126.535C195.532 126.441 195.735 126.316 195.902 126.16C196.079 125.993 196.235 125.806 196.36 125.598C196.496 125.389 196.61 125.176 196.694 124.952V119.598H197.985V125.327C197.985 125.717 197.996 126.118 198.027 126.535C198.053 126.941 198.095 127.296 198.152 127.598H197.277L196.964 126.327H196.881C196.631 126.743 196.298 127.092 195.881 127.368C195.464 127.645 194.933 127.785 194.298 127.785C193.865 127.785 193.49 127.733 193.173 127.639C192.85 127.546 192.579 127.368 192.36 127.118C192.136 126.858 191.97 126.509 191.86 126.077C191.746 125.65 191.694 125.098 191.694 124.431V119.598H192.964Z" fill="black"/>
<path d="M201.859 125.639C201.859 126.004 201.922 126.264 202.047 126.431C202.182 126.587 202.37 126.66 202.609 126.66C202.745 126.66 202.89 126.655 203.047 126.639C203.213 126.613 203.39 126.566 203.588 126.494L203.734 127.494C203.568 127.593 203.328 127.66 203.026 127.702C202.719 127.754 202.453 127.785 202.234 127.785C201.76 127.785 201.364 127.65 201.047 127.389C200.739 127.113 200.588 126.65 200.588 125.994V116.389H201.859V125.639Z" fill="black"/>
<path d="M211.261 124.848C211.261 125.389 211.266 125.884 211.281 126.327C211.292 126.775 211.344 127.212 211.427 127.639H210.552L210.24 126.494H210.177C209.953 126.869 209.641 127.181 209.24 127.431C208.833 127.665 208.365 127.785 207.823 127.785C206.75 127.785 205.958 127.452 205.448 126.785C204.932 126.108 204.677 125.056 204.677 123.639C204.677 122.264 204.995 121.223 205.636 120.514C206.287 119.806 207.177 119.452 208.302 119.452C208.688 119.452 208.995 119.473 209.219 119.514C209.453 119.556 209.708 119.629 209.99 119.723V116.389H211.261V124.848ZM208.031 126.66C208.573 126.66 209 126.525 209.323 126.244C209.641 125.968 209.865 125.535 209.99 124.952V120.994C209.792 120.843 209.573 120.738 209.323 120.681C209.073 120.613 208.745 120.577 208.344 120.577C207.604 120.577 207.031 120.822 206.615 121.306C206.198 121.796 205.99 122.572 205.99 123.639C205.99 124.072 206.021 124.473 206.094 124.848C206.162 125.223 206.271 125.546 206.427 125.806C206.594 126.072 206.807 126.28 207.073 126.431C207.333 126.587 207.656 126.66 208.031 126.66Z" fill="black"/>
<path d="M221.765 120.827C221.443 120.718 221.146 120.66 220.87 120.66C220.411 120.66 220.042 120.796 219.765 121.056C219.5 121.306 219.338 121.619 219.286 121.994V127.598H217.995V119.598H218.89L219.14 120.577H219.203C219.396 120.218 219.63 119.942 219.911 119.744C220.203 119.535 220.568 119.431 221.015 119.431C221.318 119.431 221.661 119.488 222.036 119.598L221.765 120.827Z" fill="black"/>
<path d="M229.268 126.952C228.945 127.217 228.544 127.426 228.06 127.577C227.586 127.712 227.07 127.785 226.518 127.785C225.919 127.785 225.393 127.686 224.935 127.493C224.487 127.301 224.122 127.025 223.83 126.66C223.549 126.285 223.341 125.842 223.205 125.327C223.065 124.816 222.997 124.238 222.997 123.598C222.997 122.238 223.294 121.202 223.893 120.493C224.502 119.775 225.377 119.41 226.518 119.41C226.877 119.41 227.237 119.452 227.601 119.535C227.961 119.608 228.278 119.759 228.56 119.993C228.851 120.217 229.086 120.535 229.268 120.952C229.461 121.358 229.56 121.889 229.56 122.556C229.56 122.905 229.523 123.296 229.455 123.723H224.31C224.31 124.197 224.356 124.613 224.455 124.973C224.549 125.337 224.695 125.639 224.893 125.889C225.101 126.139 225.362 126.337 225.685 126.473C226.018 126.598 226.419 126.66 226.893 126.66C227.252 126.66 227.612 126.598 227.976 126.473C228.336 126.348 228.606 126.202 228.789 126.035L229.268 126.952ZM226.518 120.535C225.893 120.535 225.393 120.702 225.018 121.035C224.643 121.358 224.414 121.921 224.33 122.723H228.31C228.31 121.905 228.148 121.337 227.83 121.014C227.523 120.697 227.086 120.535 226.518 120.535Z" fill="black"/>
<path d="M231.563 119.598H232.438L232.688 120.556H232.75C233 120.181 233.318 119.9 233.709 119.702C234.094 119.509 234.542 119.41 235.042 119.41C236.11 119.41 236.901 119.723 237.417 120.348C237.943 120.973 238.209 122.004 238.209 123.431C238.209 124.113 238.115 124.723 237.938 125.264C237.771 125.796 237.521 126.243 237.188 126.618C236.865 126.993 236.479 127.285 236.021 127.493C235.573 127.686 235.073 127.785 234.521 127.785C234.13 127.785 233.818 127.754 233.584 127.702C233.36 127.66 233.115 127.587 232.854 127.473V130.806H231.563V119.598ZM234.792 120.535C234.25 120.535 233.818 120.676 233.5 120.952C233.193 121.233 232.979 121.66 232.854 122.243V126.202C233.031 126.358 233.25 126.473 233.5 126.556C233.75 126.629 234.073 126.66 234.479 126.66C235.214 126.66 235.797 126.389 236.229 125.848C236.656 125.296 236.875 124.488 236.875 123.431C236.875 122.988 236.834 122.592 236.75 122.243C236.677 121.884 236.563 121.577 236.396 121.327C236.24 121.077 236.031 120.884 235.771 120.743C235.505 120.608 235.177 120.535 234.792 120.535Z" fill="black"/>
<path d="M241.635 125.639C241.635 126.004 241.698 126.264 241.823 126.431C241.958 126.587 242.146 126.66 242.385 126.66C242.521 126.66 242.667 126.655 242.823 126.639C242.99 126.613 243.167 126.566 243.365 126.494L243.51 127.494C243.344 127.593 243.104 127.66 242.802 127.702C242.495 127.754 242.229 127.785 242.01 127.785C241.536 127.785 241.141 127.65 240.823 127.389C240.516 127.113 240.365 126.65 240.365 125.994V116.389H241.635V125.639Z" fill="black"/>
<path d="M244.766 120.181C245.167 119.947 245.641 119.775 246.182 119.66C246.724 119.535 247.287 119.473 247.87 119.473C248.422 119.473 248.87 119.551 249.203 119.702C249.537 119.842 249.792 120.035 249.974 120.285C250.151 120.525 250.271 120.785 250.328 121.077C250.38 121.358 250.412 121.639 250.412 121.931C250.412 122.572 250.391 123.197 250.349 123.806C250.318 124.421 250.307 124.993 250.307 125.535C250.307 125.926 250.318 126.301 250.349 126.66C250.391 127.009 250.453 127.337 250.537 127.639H249.599L249.266 126.514H249.182C249.083 126.671 248.958 126.816 248.807 126.952C248.667 127.092 248.495 127.217 248.287 127.327C248.089 127.441 247.86 127.53 247.599 127.598C247.333 127.681 247.026 127.723 246.682 127.723C246.349 127.723 246.026 127.671 245.724 127.577C245.432 127.467 245.182 127.316 244.974 127.118C244.766 126.91 244.599 126.671 244.474 126.389C244.349 126.113 244.287 125.801 244.287 125.452C244.287 124.983 244.38 124.592 244.578 124.285C244.771 123.967 245.042 123.717 245.391 123.535C245.735 123.342 246.146 123.212 246.62 123.139C247.104 123.056 247.646 123.014 248.245 123.014C248.38 123.014 248.521 123.014 248.662 123.014C248.813 123.014 248.964 123.025 249.12 123.035C249.146 122.717 249.162 122.431 249.162 122.181C249.162 121.587 249.042 121.176 248.807 120.952C248.568 120.717 248.146 120.598 247.537 120.598C247.354 120.598 247.162 120.613 246.953 120.639C246.745 120.655 246.526 120.691 246.307 120.743C246.083 120.785 245.875 120.842 245.682 120.91C245.485 120.983 245.313 121.056 245.162 121.139L244.766 120.181ZM247.037 126.598C247.339 126.598 247.604 126.566 247.828 126.493C248.063 126.41 248.266 126.306 248.432 126.181C248.61 126.056 248.755 125.926 248.87 125.785C248.979 125.634 249.063 125.488 249.12 125.348V124.014C248.964 124.004 248.813 123.993 248.662 123.993C248.505 123.983 248.354 123.973 248.203 123.973C247.87 123.973 247.542 123.993 247.224 124.035C246.917 124.077 246.641 124.15 246.391 124.243C246.151 124.342 245.964 124.483 245.828 124.66C245.688 124.842 245.62 125.066 245.62 125.327C245.62 125.702 245.75 126.009 246.016 126.243C246.276 126.483 246.62 126.598 247.037 126.598Z" fill="black"/>
<path d="M258.285 127.077C257.962 127.316 257.582 127.488 257.139 127.598C256.707 127.723 256.249 127.785 255.764 127.785C255.15 127.785 254.629 127.686 254.202 127.493C253.769 127.301 253.415 127.025 253.139 126.66C252.874 126.285 252.681 125.842 252.556 125.327C252.441 124.801 252.389 124.223 252.389 123.598C252.389 122.238 252.686 121.202 253.285 120.493C253.879 119.775 254.733 119.41 255.847 119.41C256.358 119.41 256.795 119.452 257.16 119.535C257.519 119.608 257.837 119.717 258.118 119.868L257.764 120.973C257.514 120.837 257.233 120.733 256.931 120.66C256.639 120.577 256.316 120.535 255.972 120.535C254.457 120.535 253.702 121.556 253.702 123.598C253.702 124.004 253.743 124.389 253.827 124.764C253.91 125.129 254.04 125.452 254.222 125.743C254.415 126.025 254.665 126.243 254.972 126.41C255.275 126.577 255.65 126.66 256.097 126.66C256.472 126.66 256.811 126.608 257.118 126.493C257.42 126.384 257.67 126.254 257.868 126.098L258.285 127.077Z" fill="black"/>
<path d="M265.876 126.952C265.553 127.217 265.152 127.426 264.668 127.577C264.194 127.712 263.678 127.785 263.126 127.785C262.527 127.785 262.001 127.686 261.543 127.493C261.095 127.301 260.73 127.025 260.439 126.66C260.157 126.285 259.949 125.842 259.814 125.327C259.673 124.816 259.605 124.238 259.605 123.598C259.605 122.238 259.902 121.202 260.501 120.493C261.11 119.775 261.985 119.41 263.126 119.41C263.485 119.41 263.845 119.452 264.209 119.535C264.569 119.608 264.886 119.759 265.168 119.993C265.459 120.217 265.694 120.535 265.876 120.952C266.069 121.358 266.168 121.889 266.168 122.556C266.168 122.905 266.131 123.296 266.064 123.723H260.918C260.918 124.197 260.965 124.613 261.064 124.973C261.157 125.337 261.303 125.639 261.501 125.889C261.709 126.139 261.97 126.337 262.293 126.473C262.626 126.598 263.027 126.66 263.501 126.66C263.86 126.66 264.22 126.598 264.584 126.473C264.944 126.348 265.215 126.202 265.397 126.035L265.876 126.952ZM263.126 120.535C262.501 120.535 262.001 120.702 261.626 121.035C261.251 121.358 261.022 121.921 260.939 122.723H264.918C264.918 121.905 264.756 121.337 264.439 121.014C264.131 120.697 263.694 120.535 263.126 120.535Z" fill="black"/>
<path d="M14.9792 63H275.021" stroke="#8C52FF" stroke-width="2"/>
<path d="M14.9739 5.60425V64.0209" stroke="#8C52FF" stroke-width="2"/>
<path d="M14.9792 6.59888H275.021" stroke="#8C52FF" stroke-width="2"/>
<path d="M275.016 5.60425L275.016 64.0209" stroke="#8C52FF" stroke-width="2"/>
</svg>
