<svg width="194" height="141" viewBox="0 0 194 141" fill="none" xmlns="http://www.w3.org/2000/svg">
<path d="M98.6742 62.0494C98.9503 62.4401 99.0492 62.8411 98.9659 63.2578C98.8826 63.6744 98.643 64.0234 98.2576 64.2994C89.6013 70.4974 81.7159 76.3515 74.5909 81.8619C75.3096 84.1536 75.393 86.6588 74.8409 89.3828C73.9346 94.1328 72.3253 98.5547 70.0075 102.654C67.7003 106.747 64.9971 110.477 61.9034 113.841C58.82 117.216 55.5909 120.117 52.2159 122.549C48.8409 124.977 45.6169 126.872 42.5492 128.237C39.4919 129.596 36.8461 130.362 34.6117 130.529C34.2784 130.581 33.9711 130.612 33.695 130.612C31.9555 130.612 30.7263 130.263 30.0075 129.57C29.2836 128.872 28.8096 128.221 28.5909 127.612C27.3096 124.096 30.3044 118.31 37.57 110.258C44.8461 102.2 55.8721 92.4036 70.6534 80.8619C68.82 77.5703 65.1221 74.539 59.57 71.7578C54.0284 68.9661 46.6794 65.7317 37.5284 62.0494C36.4711 61.6067 35.3878 61.164 34.2784 60.7161C33.1638 60.2578 32.018 59.7786 30.8409 59.2786C26.8253 57.6119 24.0388 55.3567 22.4867 52.5078C20.9294 49.664 20.7367 46.4036 21.9034 42.7369C22.7888 39.8932 24.3461 36.9869 26.57 34.0286C28.8044 31.0703 31.5128 28.1328 34.695 25.2161C37.8721 22.289 41.3305 19.5026 45.07 16.8619C48.8044 14.2109 52.6221 11.7942 56.5284 9.61194C60.4294 7.43486 64.2419 5.59111 67.9659 4.09111C71.7003 2.59111 75.143 1.53903 78.2992 0.924444C81.4503 0.299444 84.1169 0.24736 86.2992 0.757777C87.1846 0.981736 88.1742 1.3984 89.2576 2.00778C90.3409 2.62236 91.2003 3.61194 91.8409 4.98694C92.4919 6.35153 92.6794 8.22653 92.4034 10.6119C92.2888 11.0599 92.0596 11.4036 91.7159 11.6536C91.3826 11.9036 90.9919 12.0026 90.5492 11.9453C90.1013 11.8932 89.7419 11.6849 89.4659 11.3203C89.1846 10.9609 89.0753 10.5599 89.1326 10.1119C89.4659 7.77861 89.2159 6.22653 88.3826 5.44528C87.5492 4.65361 86.6325 4.1484 85.6325 3.92444C83.5075 3.42444 80.7003 3.59111 77.2159 4.42444C73.7263 5.25778 69.8409 6.66924 65.5492 8.65361C61.2575 10.6276 56.8513 13.0651 52.3409 15.9661C47.5492 18.9817 43.2419 22.1224 39.4242 25.3828C35.6013 28.6328 32.4503 31.8203 29.9659 34.9453C27.4919 38.0703 25.8305 40.9765 24.9867 43.6536C23.1534 49.3932 25.5284 53.6276 32.1117 56.3619C33.2784 56.8099 34.4034 57.2526 35.4867 57.6953C36.57 58.1432 37.6742 58.5859 38.7992 59.0286C44.4242 61.3203 49.5336 63.4869 54.1325 65.5286C58.7263 67.5599 62.6586 69.6328 65.9242 71.7578C69.1846 73.8724 71.6221 76.2369 73.2367 78.8619C80.2628 73.3932 87.9867 67.6744 96.4034 61.7161C96.7888 61.4401 97.1951 61.3411 97.6117 61.4244C98.0388 61.5078 98.393 61.7161 98.6742 62.0494ZM71.7367 88.7161C72.07 87.0495 72.0961 85.4869 71.82 84.0286C59.945 93.3463 50.518 101.549 43.5492 108.633C39.4763 112.81 36.3513 116.529 34.1742 119.779C32.0075 123.039 31.143 125.289 31.5909 126.529C31.7575 126.971 32.143 127.237 32.7575 127.32C33.3825 127.404 33.9138 127.414 34.3617 127.362C36.195 127.247 38.5075 126.549 41.2992 125.258C44.0909 123.977 47.0388 122.206 50.1534 119.945C53.2784 117.695 56.32 115.008 59.2784 111.883C62.2367 108.758 64.8253 105.242 67.0492 101.341C69.2836 97.4349 70.8461 93.2265 71.7367 88.7161Z" fill="black"/>
<path d="M176.53 56.5285C176.697 56.9191 176.697 57.3201 176.53 57.7368C176.363 58.1535 176.077 58.4451 175.676 58.6118C172.395 59.9607 169.264 61.3305 166.28 62.716C163.29 64.1066 160.431 65.4764 157.697 66.8201C153.514 84.8201 148.332 99.841 142.155 111.883C137.639 120.742 132.785 127.679 127.592 132.695C122.41 137.721 117.368 140.372 112.467 140.653C112.186 140.706 111.91 140.737 111.634 140.737C108.728 140.737 106.259 139.851 104.217 138.091C102.186 136.341 100.811 133.903 100.092 130.778C99.4258 127.888 99.4518 124.518 100.176 120.674C100.895 116.825 102.452 112.638 104.842 108.112C107.243 103.596 110.618 98.9035 114.967 94.0285C119.311 89.1535 124.79 84.2212 131.405 79.2368C138.014 74.2368 145.863 69.3722 154.947 64.6326C158.348 49.6899 160.967 33.1326 162.801 14.966C162.967 13.341 163.077 11.9451 163.134 10.7785C162.686 11.7264 162.217 12.7889 161.717 13.966C161.217 15.1326 160.717 16.2993 160.217 17.466C158.827 20.6482 157.223 24.2576 155.405 28.2993C153.598 32.341 151.577 36.466 149.342 40.6743C147.103 44.8826 144.686 48.8982 142.092 52.716C139.509 56.5389 136.764 59.8149 133.863 62.5493C126.624 69.3566 120.863 72.0597 116.572 70.6535C115.556 70.3774 114.493 69.6847 113.384 68.5701C112.27 67.4607 111.436 65.591 110.884 62.966C110.426 60.5649 110.332 57.7785 110.613 54.6118C110.905 51.4347 111.52 48.1014 112.467 44.6118C113.41 41.1274 114.66 37.6691 116.217 34.2368C117.785 30.8097 119.624 27.591 121.738 24.591C123.863 21.5805 126.207 18.9816 128.78 16.7993C129.113 16.5232 129.499 16.3982 129.947 16.4243C130.389 16.4555 130.749 16.6326 131.03 16.966C131.306 17.2993 131.431 17.6951 131.405 18.1535C131.374 18.6014 131.197 18.9607 130.863 19.2368C128.514 21.2368 126.363 23.6326 124.405 26.4243C122.457 29.216 120.749 32.2316 119.28 35.466C117.806 38.6899 116.592 41.9347 115.634 45.1951C114.686 48.4607 114.077 51.5857 113.801 54.5701C113.52 57.5441 113.603 60.1482 114.051 62.3826C114.27 63.3826 114.634 64.4347 115.134 65.5285C115.634 66.6118 116.447 67.3201 117.572 67.6535C118.124 67.8201 118.988 67.8201 120.155 67.6535C121.322 67.4868 122.832 66.8514 124.697 65.7368C126.572 64.6118 128.874 62.768 131.613 60.1951C134.405 57.5857 137.051 54.4243 139.551 50.716C142.061 47.0076 144.405 43.091 146.572 38.966C148.749 34.841 150.743 30.7993 152.551 26.841C154.368 22.8826 155.947 19.341 157.28 16.216C158.738 12.8722 159.884 10.3201 160.717 8.57012C161.551 6.8097 162.259 5.6222 162.842 5.00762C163.426 4.39824 164.082 4.20553 164.822 4.42428C165.431 4.59095 165.874 4.98158 166.155 5.59095C166.431 6.20553 166.54 7.26803 166.488 8.77845C166.431 10.2785 166.264 12.4555 165.988 15.2993C164.249 32.5232 161.801 48.3566 158.634 62.7993C161.077 61.5805 163.624 60.3722 166.28 59.1743C168.931 57.966 171.645 56.8097 174.426 55.6951C174.811 55.5285 175.217 55.5285 175.634 55.6951C176.061 55.8618 176.363 56.143 176.53 56.5285ZM139.301 110.383C145.051 99.1743 149.931 85.3201 153.947 68.8201C143.957 74.2264 135.884 79.5024 129.717 84.6535C123.561 89.8201 118.811 94.4087 115.467 98.4243C110.676 104.101 107.186 109.742 105.009 115.341C102.842 120.95 102.259 125.872 103.259 130.112C103.811 132.57 104.868 134.45 106.426 135.758C107.993 137.06 109.926 137.633 112.217 137.466C115.118 137.299 118.113 136.096 121.197 133.862C124.29 131.638 127.389 128.549 130.488 124.591C133.582 120.633 136.52 115.893 139.301 110.383Z" fill="black"/>
<path d="M0.5 109.302H193" stroke="#8C52FF" stroke-width="4"/>
<path d="M2.4895 9.427V109.427" stroke="#8C52FF" stroke-width="4"/>
<path d="M0.463623 9.41675L191.031 9.41675" stroke="#8C52FF" stroke-width="4"/>
<path d="M191.026 7.3855V109.422" stroke="#8C52FF" stroke-width="4"/>
</svg>
