<?xml version="1.0" standalone="no"?>
<!DOCTYPE svg PUBLIC "-//W3C//DTD SVG 20010904//EN"
 "http://www.w3.org/TR/2001/REC-SVG-20010904/DTD/svg10.dtd">
<svg version="1.0" xmlns="http://www.w3.org/2000/svg"
 width="576.000000pt" height="576.000000pt" viewBox="0 0 576.000000 576.000000"
 preserveAspectRatio="xMidYMid meet">
<metadata>
Created by potrace 1.14, written by Peter Selinger 2001-2017
</metadata>
<g transform="translate(0.000000,576.000000) scale(0.100000,-0.100000)"
fill="#000000" stroke="none">
<path d="M5119 4800 c-301 -302 -319 -318 -358 -322 -22 -2 -41 -1 -41 2 0 3
-29 3 -65 0 -35 -3 -72 -3 -82 1 -9 3 -34 3 -54 -1 -21 -4 -42 -4 -48 0 -6 3
-36 3 -66 0 -30 -3 -60 -3 -66 0 -5 4 -30 4 -54 0 -25 -4 -47 -4 -50 -1 -4 3
-21 4 -40 3 -32 -3 -49 12 -350 313 -174 174 -319 314 -321 312 -6 -6 -10
-207 -3 -207 3 0 2 -23 -1 -51 -4 -29 -4 -68 0 -88 3 -20 3 -50 -1 -68 -3 -17
-3 -37 1 -43 4 -6 4 -28 0 -49 -4 -20 -4 -46 0 -57 4 -10 4 -30 0 -43 -3 -14
-3 -44 0 -68 4 -24 4 -43 1 -43 -3 0 -6 -22 -6 -50 0 -27 2 -50 5 -50 3 0 4
-46 3 -102 -1 -57 -3 -103 -3 -103 -1 0 -2 -33 -3 -73 -1 -39 2 -72 6 -72 5 0
5 -5 2 -10 -12 -19 -4 -298 9 -318 2 -4 7 -26 10 -48 7 -44 61 -190 78 -211 6
-7 7 -13 3 -13 -5 0 -1 -8 7 -17 8 -10 24 -34 35 -54 28 -50 47 -73 133 -161
41 -43 81 -78 88 -78 6 0 12 -4 12 -9 0 -10 116 -81 180 -109 90 -40 158 -60
268 -79 48 -8 228 -7 267 1 17 4 44 9 61 11 17 3 62 14 100 26 286 88 536 339
621 623 28 93 34 132 39 246 2 52 4 97 5 100 1 3 1 9 0 13 -2 13 -2 97 1 165
2 34 0 62 -3 62 -3 0 -3 20 1 45 4 24 4 49 0 56 -4 6 -4 26 0 44 4 18 4 38 0
45 -4 7 -4 27 0 46 4 18 5 35 3 38 -3 3 -4 31 -3 63 2 73 2 69 1 128 -1 28 0
78 1 113 2 34 0 62 -3 62 -3 0 -3 20 1 45 4 24 4 49 0 56 -4 6 -4 26 0 44 4
18 4 38 0 45 -4 7 -4 27 0 46 4 18 5 35 3 38 -3 3 -5 32 -4 65 0 34 0 61 -2
60 -1 0 -144 -144 -318 -319z m-950 -828 c57 -43 84 -120 63 -181 -55 -158
-285 -138 -308 27 -10 70 27 139 91 168 39 18 121 11 154 -14z m800 0 c91 -67
93 -191 6 -258 -49 -37 -137 -41 -182 -8 -65 48 -89 127 -59 197 14 35 66 81
101 90 37 9 109 -2 134 -21z"/>
<path d="M551 4468 c-43 -12 -109 -54 -141 -89 -46 -51 -51 -59 -71 -116 -37
-107 -10 -236 65 -317 65 -70 120 -92 268 -111 86 -10 135 -33 190 -88 75 -75
99 -147 98 -297 -1 -49 0 -73 1 -92 0 -7 0 -31 0 -53 -1 -22 -1 -49 -1 -60 0
-11 0 -42 0 -68 0 -27 2 -53 5 -58 4 -5 3 -9 -2 -9 -4 0 -8 -22 -8 -50 0 -27
2 -50 5 -50 3 0 4 -46 3 -102 -1 -57 -3 -103 -3 -103 -1 0 -2 -33 -3 -73 -1
-39 2 -72 6 -72 5 0 5 -5 2 -10 -8 -12 -9 -236 -1 -248 2 -4 1 -14 -3 -20 -4
-7 -5 -33 -1 -57 4 -25 5 -47 2 -49 -6 -7 -8 -116 -2 -116 4 0 4 -113 0 -130
-1 -3 -1 -45 0 -95 1 -49 1 -101 0 -115 -4 -85 -4 -140 1 -140 3 0 3 -20 -1
-45 -4 -24 -4 -49 0 -56 4 -6 4 -26 0 -44 -4 -18 -4 -38 0 -45 4 -7 4 -27 0
-46 -4 -18 -5 -35 -3 -38 3 -3 4 -31 3 -63 -2 -73 -2 -69 -1 -128 1 -27 0 -78
-1 -113 -2 -34 -1 -62 2 -62 3 0 5 -37 6 -83 0 -129 18 -198 77 -310 31 -59
154 -197 175 -197 7 0 12 -4 12 -10 0 -16 165 -89 237 -105 57 -12 225 -14
996 -15 1023 0 968 -4 1024 64 26 32 30 45 31 104 0 37 2 69 2 72 3 10 -1 96
-6 134 -13 94 -88 192 -180 235 -46 22 -144 35 -239 31 -22 -1 -47 -1 -55 -1
-16 1 -89 1 -99 -1 -3 0 -16 0 -29 1 -32 1 -33 1 203 177 110 82 205 154 211
159 6 6 21 17 34 25 12 8 82 61 156 117 74 57 139 103 144 103 4 0 10 4 12 8
5 12 298 232 309 232 5 0 9 4 9 10 0 5 13 16 29 25 16 8 44 28 62 45 19 16 38
30 43 30 5 0 15 8 22 17 12 16 13 15 14 -12 4 -171 4 -205 0 -205 -3 0 -4 -26
-3 -57 2 -32 3 -78 2 -103 0 -50 1 -74 2 -92 0 -7 0 -31 0 -53 -1 -22 -1 -49
-1 -60 0 -11 0 -42 0 -68 0 -27 2 -53 5 -58 4 -5 3 -9 -2 -9 -4 0 -8 -22 -8
-50 0 -27 2 -50 5 -50 3 0 4 -46 3 -102 -1 -57 -3 -103 -3 -103 -1 0 -2 -33
-3 -73 -1 -39 2 -72 6 -72 5 0 6 -4 2 -9 -4 -8 -9 -183 -5 -201 0 -3 2 -29 4
-58 4 -57 22 -91 70 -126 25 -19 44 -21 228 -24 215 -3 241 1 290 46 34 31 50
78 48 137 0 25 -1 51 -1 58 0 6 0 60 1 119 1 59 -1 111 -4 116 -2 4 -1 14 3
20 4 7 5 33 1 57 -4 25 -5 47 -2 49 6 7 8 116 2 116 -4 0 -4 111 0 130 3 16 0
262 -4 269 -3 4 -1 13 3 19 4 7 5 33 1 57 -4 25 -5 47 -2 49 6 7 8 116 2 116
-4 0 -4 111 0 130 3 16 0 262 -4 269 -3 4 -1 13 3 19 4 7 5 33 1 57 -4 25 -5
47 -2 49 7 7 8 116 1 116 -3 0 -3 20 1 45 4 24 4 49 0 55 -4 6 -4 29 0 50 10
53 -2 71 -39 60 -16 -4 -32 -6 -34 -3 -3 2 -14 0 -24 -5 -67 -36 -359 -31
-518 9 -124 31 -338 120 -372 155 -7 7 -22 16 -33 19 -11 3 -20 11 -20 16 0 5
-5 9 -12 9 -16 0 -120 89 -195 167 -154 160 -272 378 -318 586 -8 35 -15 37
-113 32 -201 -10 -393 -45 -537 -98 -16 -7 -34 -12 -40 -13 -33 -6 -288 -122
-320 -147 -5 -4 -44 -29 -85 -55 -181 -116 -382 -312 -498 -483 -18 -27 -35
-49 -38 -49 -2 0 -3 10 -3 23 0 12 0 47 0 77 0 30 0 71 0 90 0 81 0 160 -2
183 0 6 0 30 0 52 1 22 1 49 1 60 0 11 0 42 0 68 0 27 -2 53 -5 58 -4 5 -3 9
2 9 4 0 8 23 8 50 0 28 -2 50 -5 50 -3 0 -6 64 -6 143 -1 112 -6 159 -23 221
-99 360 -364 619 -720 703 -78 18 -252 25 -300 11z"/>
</g>
      <text
        x="50%"
        y="50%"
        font-family="Inspiration, cursive"
        font-size="40"
        text-anchor="middle"
        dominant-baseline="middle"
        fill="black"
      >
        SY
      </text>
</svg>
